<svg width="24" height="24" viewBox="0 0 24 24" fill="none" xmlns="http://www.w3.org/2000/svg">
<path d="M4.875 1.5H15.375C16.2701 1.5 17.1286 1.85558 17.7615 2.48851C18.3944 3.12145 18.75 3.97989 18.75 4.875V15.375C18.75 16.2701 18.3944 17.1285 17.7615 17.7615C17.1285 18.3944 16.2701 18.75 15.375 18.75H4.875C3.97989 18.75 3.12145 18.3944 2.48851 17.7615C1.85558 17.1285 1.5 16.2701 1.5 15.375V4.875C1.5 3.97989 1.85558 3.12145 2.48852 2.48851C3.12145 1.85558 3.9799 1.5 4.875 1.5Z" fill="black"/>
<path d="M16.5 20.25H5.44312C5.67647 20.9075 6.10755 21.4768 6.67723 21.8796C7.24691 22.2825 7.92728 22.4992 8.625 22.5H19.125C20.0201 22.5 20.8785 22.1444 21.5115 21.5115C22.1444 20.8786 22.5 20.0201 22.5 19.125V8.625C22.4992 7.92728 22.2825 7.24691 21.8796 6.67723C21.4768 6.10755 20.9075 5.67647 20.25 5.44312V16.5C20.25 17.4946 19.8549 18.4484 19.1516 19.1517C18.4484 19.8549 17.4946 20.25 16.5 20.25Z" fill="black"/>
</svg>
