<svg width="24" height="24" viewBox="0 0 24 24" fill="none" xmlns="http://www.w3.org/2000/svg">
<path d="M17.0302 6.96975C16.9318 6.87125 16.8079 6.8021 16.6724 6.77005C16.5369 6.73799 16.3951 6.74429 16.263 6.78825L9.513 9.03825C9.40245 9.07511 9.30199 9.1372 9.21959 9.2196C9.13719 9.302 9.0751 9.40245 9.03825 9.513L6.78825 16.263C6.74418 16.3951 6.73778 16.537 6.76978 16.6725C6.80177 16.8081 6.87089 16.9321 6.9694 17.0306C7.0679 17.1291 7.19188 17.1982 7.32746 17.2302C7.46304 17.2622 7.60485 17.2558 7.737 17.2118L14.487 14.9618C14.5975 14.9249 14.698 14.8628 14.7804 14.7804C14.8628 14.698 14.9249 14.5976 14.9617 14.487L17.2117 7.737C17.2557 7.60487 17.262 7.46311 17.2299 7.3276C17.1979 7.19209 17.1287 7.06818 17.0302 6.96975ZM8.68575 15.315L10.3432 10.344L13.6575 13.6583L8.68575 15.315Z" fill="black"/>
<path d="M12 22.5C9.9233 22.5 7.89323 21.8842 6.16652 20.7304C4.4398 19.5767 3.09399 17.9368 2.29927 16.0182C1.50455 14.0996 1.29661 11.9884 1.70176 9.95155C2.1069 7.91475 3.10693 6.04383 4.57538 4.57538C6.04383 3.10693 7.91476 2.1069 9.95156 1.70176C11.9884 1.29661 14.0996 1.50455 16.0182 2.29927C17.9368 3.09399 19.5767 4.4398 20.7304 6.16651C21.8842 7.89323 22.5 9.9233 22.5 12C22.4968 14.7838 21.3896 17.4527 19.4211 19.4211C17.4527 21.3896 14.7838 22.4968 12 22.5ZM12 3C10.22 3 8.47992 3.52784 6.99987 4.51677C5.51983 5.50571 4.36628 6.91132 3.68509 8.55585C3.0039 10.2004 2.82567 12.01 3.17294 13.7558C3.5202 15.5016 4.37737 17.1053 5.63604 18.364C6.89472 19.6226 8.49836 20.4798 10.2442 20.8271C11.99 21.1743 13.7996 20.9961 15.4442 20.3149C17.0887 19.6337 18.4943 18.4802 19.4832 17.0001C20.4722 15.5201 21 13.78 21 12C20.9972 9.61391 20.0481 7.32633 18.3609 5.63911C16.6737 3.95188 14.3861 3.00278 12 3Z" fill="black"/>
</svg>
