<svg width="24" height="24" viewBox="0 0 24 24" fill="none" xmlns="http://www.w3.org/2000/svg">
<path d="M9.05443 1.25C10.4214 1.25 11.5244 1.25 12.3914 1.367C13.2914 1.487 14.0494 1.747 14.6514 2.348C15.1754 2.873 15.4414 3.518 15.5804 4.276C15.7154 5.013 15.7414 5.914 15.7474 6.996C15.7485 7.19491 15.6705 7.3861 15.5306 7.5275C15.3907 7.6689 15.2003 7.74894 15.0014 7.75C14.8025 7.75106 14.6113 7.67306 14.4699 7.53316C14.3285 7.39326 14.2485 7.20291 14.2474 7.004C14.2414 5.911 14.2134 5.136 14.1054 4.547C14.0004 3.981 13.8334 3.652 13.5904 3.409C13.3134 3.132 12.9244 2.952 12.1904 2.853C11.4354 2.752 10.4344 2.75 8.99943 2.75H7.99943C6.56343 2.75 5.56243 2.752 4.80743 2.853C4.07343 2.952 3.68543 3.133 3.40743 3.409C3.13143 3.686 2.95143 4.074 2.85243 4.809C2.75043 5.563 2.74943 6.565 2.74943 8V16C2.74943 17.435 2.75043 18.436 2.85243 19.192C2.95143 19.926 3.13143 20.314 3.40843 20.591C3.68543 20.868 4.07343 21.048 4.80743 21.147C5.56243 21.248 6.56343 21.25 7.99943 21.25H8.99943C10.4344 21.25 11.4354 21.248 12.1914 21.147C12.9244 21.048 13.3134 20.867 13.5904 20.591C13.8334 20.347 14.0004 20.019 14.1054 19.453C14.2134 18.864 14.2414 18.089 14.2474 16.996C14.248 16.8975 14.2679 16.8001 14.306 16.7093C14.3442 16.6185 14.3999 16.5361 14.4699 16.4668C14.5399 16.3976 14.6229 16.3428 14.7141 16.3056C14.8053 16.2684 14.9029 16.2495 15.0014 16.25C15.0999 16.2505 15.1973 16.2704 15.2881 16.3086C15.3789 16.3468 15.4613 16.4025 15.5306 16.4725C15.5999 16.5425 15.6547 16.6255 15.6919 16.7167C15.7291 16.8079 15.748 16.9055 15.7474 17.004C15.7414 18.086 15.7154 18.987 15.5804 19.724C15.4404 20.482 15.1754 21.127 14.6504 21.652C14.0494 22.254 13.2904 22.512 12.3904 22.634C11.5244 22.75 10.4214 22.75 9.05443 22.75H7.94443C6.57643 22.75 5.47443 22.75 4.60743 22.634C3.70743 22.512 2.94943 22.254 2.34743 21.652C1.74543 21.05 1.48743 20.292 1.36543 19.392C1.24943 18.525 1.24943 17.422 1.24943 16.055V7.945C1.24943 6.578 1.24943 5.475 1.36543 4.608C1.48643 3.708 1.74543 2.95 2.34743 2.348C2.94943 1.746 3.70743 1.488 4.60743 1.367C5.47443 1.25 6.57743 1.25 7.94443 1.25H9.05443Z" fill="black"/>
<path d="M8.99944 11.25C8.80053 11.25 8.60976 11.329 8.46911 11.4697C8.32846 11.6103 8.24944 11.8011 8.24944 12C8.24944 12.1989 8.32846 12.3897 8.46911 12.5303C8.60976 12.671 8.80053 12.75 8.99944 12.75H19.9724L18.0114 14.43C17.8603 14.5594 17.7667 14.7436 17.7513 14.942C17.7359 15.1404 17.8 15.3368 17.9294 15.488C18.0589 15.6392 18.243 15.7327 18.4415 15.7481C18.6399 15.7635 18.8363 15.6994 18.9874 15.57L22.4874 12.57C22.5698 12.4996 22.6359 12.4122 22.6812 12.3138C22.7265 12.2154 22.75 12.1083 22.75 12C22.75 11.8917 22.7265 11.7846 22.6812 11.6862C22.6359 11.5878 22.5698 11.5004 22.4874 11.43L18.9874 8.43C18.9126 8.36591 18.8258 8.3172 18.7322 8.28664C18.6385 8.25607 18.5397 8.24426 18.4415 8.25188C18.3432 8.25949 18.2474 8.28638 18.1596 8.33101C18.0717 8.37565 17.9935 8.43714 17.9294 8.512C17.8654 8.58685 17.8166 8.67359 17.7861 8.76727C17.7555 8.86095 17.7437 8.95973 17.7513 9.05798C17.7589 9.15622 17.7858 9.25201 17.8305 9.33986C17.8751 9.42771 17.9366 9.50591 18.0114 9.57L19.9714 11.25H8.99944Z" fill="black"/>
</svg>
