<svg width="24" height="24" viewBox="0 0 24 24" fill="none" xmlns="http://www.w3.org/2000/svg">
<path d="M10.4287 2.53425C10.449 2.45309 10.4958 2.38102 10.5617 2.32952C10.6276 2.27801 10.7089 2.25002 10.7925 2.25H13.2075C13.2911 2.25002 13.3724 2.27801 13.4383 2.32952C13.5042 2.38102 13.551 2.45309 13.5712 2.53425L14.088 4.602C14.1042 4.66517 14.1362 4.72319 14.1809 4.77067C14.2257 4.81814 14.2817 4.85352 14.3438 4.8735C14.631 4.968 14.91 5.079 15.18 5.20575C15.2327 5.23082 15.2903 5.24365 15.3486 5.24326C15.407 5.24287 15.4644 5.22928 15.5167 5.2035L17.592 4.16625C17.6623 4.13102 17.742 4.1188 17.8196 4.13131C17.8973 4.14383 17.969 4.18045 18.0248 4.236L19.764 5.97525C19.8195 6.03095 19.8562 6.10271 19.8687 6.18037C19.8812 6.25803 19.869 6.33767 19.8337 6.408L18.7965 8.48325C18.7707 8.53557 18.7571 8.59305 18.7567 8.65137C18.7564 8.70969 18.7692 8.76734 18.7943 8.82C18.8895 9.02325 18.9765 9.23175 19.0538 9.44475C19.0935 9.55575 19.1813 9.6435 19.293 9.681L21.4935 10.4145C21.5681 10.4394 21.6331 10.4871 21.6791 10.5509C21.7251 10.6147 21.7499 10.6913 21.75 10.77V13.23C21.7499 13.3087 21.7251 13.3853 21.6791 13.4491C21.6331 13.5129 21.5681 13.5606 21.4935 13.5855L19.293 14.319C19.2378 14.3377 19.1875 14.3687 19.1459 14.4096C19.1043 14.4505 19.0726 14.5003 19.053 14.5552C18.9762 14.7673 18.8899 14.9758 18.7943 15.18C18.7692 15.2327 18.7564 15.2903 18.7567 15.3486C18.7571 15.407 18.7707 15.4644 18.7965 15.5167L19.8337 17.592C19.869 17.6623 19.8812 17.742 19.8687 17.8196C19.8562 17.8973 19.8195 17.969 19.764 18.0248L18.0248 19.764C17.969 19.8195 17.8973 19.8562 17.8196 19.8687C17.742 19.8812 17.6623 19.869 17.592 19.8337L15.5167 18.7965C15.4644 18.7707 15.407 18.7571 15.3486 18.7567C15.2903 18.7564 15.2327 18.7692 15.18 18.7943C14.9758 18.8901 14.7673 18.9767 14.5552 19.0538C14.5004 19.0732 14.4506 19.1049 14.4097 19.1463C14.3688 19.1877 14.3378 19.2379 14.319 19.293L13.5855 21.4935C13.5606 21.5681 13.5129 21.6331 13.4491 21.6791C13.3853 21.7251 13.3087 21.7499 13.23 21.75H10.77C10.6913 21.7499 10.6147 21.7251 10.5509 21.6791C10.4871 21.6331 10.4394 21.5681 10.4145 21.4935L9.681 19.293C9.6623 19.2378 9.63133 19.1875 9.59041 19.1459C9.54949 19.1043 9.49969 19.0726 9.44475 19.053C9.16259 18.951 8.88684 18.832 8.619 18.6968C8.56094 18.6668 8.49622 18.652 8.4309 18.6538C8.36557 18.6557 8.30179 18.674 8.2455 18.7073L6.41775 19.8045C6.34604 19.8476 6.26198 19.8654 6.17894 19.8553C6.09591 19.8451 6.01866 19.8074 5.9595 19.7482L4.25175 18.0405C4.19278 17.9814 4.15522 17.9043 4.14503 17.8214C4.13484 17.7385 4.1526 17.6546 4.1955 17.583L5.29275 15.7545C5.32595 15.6982 5.34433 15.6344 5.34617 15.5691C5.34801 15.5038 5.33324 15.4391 5.30325 15.381C5.13413 15.0465 4.99047 14.6998 4.8735 14.3438C4.85352 14.2817 4.81814 14.2257 4.77067 14.1809C4.72319 14.1362 4.66517 14.1042 4.602 14.088L2.53425 13.5705C2.45321 13.5503 2.38124 13.5036 2.32975 13.4378C2.27826 13.3721 2.25019 13.291 2.25 13.2075V10.7925C2.25002 10.7089 2.27801 10.6276 2.32952 10.5617C2.38102 10.4958 2.45309 10.449 2.53425 10.4287L4.602 9.912C4.66517 9.89576 4.72319 9.86379 4.77067 9.81907C4.81814 9.77435 4.85352 9.71833 4.8735 9.65625C4.99125 9.29775 5.136 8.95125 5.30325 8.619C5.33324 8.56094 5.34801 8.49622 5.34617 8.4309C5.34433 8.36557 5.32595 8.30179 5.29275 8.2455L4.1955 6.41775C4.15242 6.34604 4.13455 6.26198 4.14474 6.17894C4.15494 6.09591 4.1926 6.01866 4.25175 5.9595L5.9595 4.25175C6.01861 4.19278 6.09571 4.15522 6.17859 4.14503C6.26146 4.13484 6.34536 4.1526 6.417 4.1955L8.2455 5.29275C8.3595 5.361 8.5005 5.36325 8.619 5.30325C8.95321 5.13416 9.29969 4.9905 9.6555 4.8735C9.71772 4.85363 9.77389 4.8183 9.81875 4.77082C9.86361 4.72333 9.89569 4.66525 9.912 4.602L10.4287 2.53425Z" stroke="black" stroke-width="2" stroke-linecap="round" stroke-linejoin="round"/>
</svg>
