<svg width="62" height="55" viewBox="0 0 62 55" fill="none" xmlns="http://www.w3.org/2000/svg">
<path d="M42.6662 54H19.337C13.7048 54 9.22535 48.8401 9.52491 42.6972L10.361 25.5596C10.7355 17.9014 16.5287 11.9007 23.5468 11.9007H38.4554C45.4768 11.9007 51.2704 17.9019 51.6422 25.5596L52.4751 42.6972C52.7765 48.8396 48.2974 54 42.6662 54Z" stroke="black" stroke-miterlimit="10" stroke-linecap="square"/>
<path d="M34.0161 8.48359V11.9007H27.984V8.48357C30.0575 8.02792 31.9426 8.02794 34.0161 8.48359Z" stroke="black" stroke-miterlimit="10" stroke-linecap="square"/>
<path d="M33.2682 1C33.6812 1 34.0161 1.33486 34.0161 1.74794V1.74794C34.0161 2.164 33.6766 2.49998 33.2605 2.4968C31.753 2.48527 30.246 2.48527 28.7396 2.4968C28.3235 2.49998 27.984 2.16399 27.984 1.74793V1.74793C27.984 1.33486 28.3189 1 28.7319 1H33.2682Z" stroke="black" stroke-miterlimit="10" stroke-linecap="square"/>
<path d="M51.8978 6.64178C50.6992 9.92937 48.1546 11.8295 45.6294 10.8636C41.712 9.36732 37.7865 8.4802 33.8529 8.2022C31.7963 8.05123 29.73 8.06922 27.6765 8.25597C23.8903 8.58742 20.0976 9.47161 16.2985 10.9085C13.8688 11.8276 11.3009 10.0497 10.1023 6.64182C24.7307 2.69167 37.8393 2.87981 51.8978 6.64178Z" stroke="black" stroke-miterlimit="10" stroke-linecap="square"/>
<path d="M53.4177 5.45319V5.639C53.4174 5.79337 53.3815 5.94558 53.3129 6.08384C53.2443 6.22209 53.1448 6.34267 53.0221 6.43621C52.8994 6.52976 52.7569 6.59376 52.6055 6.62325C52.4541 6.65274 52.298 6.64693 52.1492 6.60627C52.021 6.57318 51.8949 6.53703 51.7683 6.5075C37.8211 2.84208 23.88 2.76165 9.9491 6.56656C9.9196 6.57674 9.88654 6.58336 9.85704 6.59303C9.70814 6.63506 9.55155 6.64203 9.39952 6.61339C9.24748 6.58475 9.10413 6.52128 8.98069 6.42795C8.85724 6.33461 8.75706 6.21395 8.68797 6.0754C8.61889 5.93685 8.58277 5.78418 8.58246 5.62933V5.4486C8.58278 5.20374 8.66619 4.96625 8.81904 4.77506C8.97189 4.58387 9.18509 4.45033 9.4237 4.39632L9.46948 4.38614C15.5382 3.30505 21.6803 2.68728 27.8426 2.53816C29.7977 2.492 31.7549 2.492 33.714 2.53816C39.8876 2.68274 46.0852 3.28787 52.3069 4.35356C52.3791 4.36323 52.4518 4.37647 52.5241 4.38971C52.774 4.43389 53.0004 4.56463 53.1638 4.75904C53.3272 4.95345 53.417 5.19916 53.4177 5.45319Z" stroke="black" stroke-miterlimit="10" stroke-linecap="square"/>
<path d="M54.2791 35.6045L52.1636 35.7262L51.8164 29.7219L53.9319 29.6003C54.3333 31.6481 54.4418 33.5244 54.2791 35.6045Z" stroke="black" stroke-miterlimit="10" stroke-linecap="square"/>
<path d="M53.7083 21.1981C53.6387 19.7775 54.7218 18.5641 56.1412 18.4726V18.4726C57.5606 18.3811 58.7914 19.4452 58.9059 20.863L60.7571 43.7802C60.8906 45.4327 59.6447 46.8738 57.9902 46.9805V46.9805C56.3357 47.0871 54.914 45.8181 54.8329 44.1621L53.7083 21.1981Z" stroke="black" stroke-miterlimit="10" stroke-linecap="square"/>
<path d="M7.72048 35.6045L9.83151 35.7259L10.1787 29.7217L8.06771 29.6003C7.66685 31.6481 7.55836 33.5244 7.72048 35.6045Z" stroke="black" stroke-miterlimit="10" stroke-linecap="square"/>
<path d="M8.29167 21.1981C8.36124 19.7775 7.27818 18.5641 5.85877 18.4726V18.4726C4.43935 18.3811 3.20858 19.4452 3.09405 20.863L1.24283 43.7802C1.10934 45.4327 2.35527 46.8738 4.00975 46.9805V46.9805C5.66424 47.0871 7.08595 45.8181 7.16705 44.1621L8.29167 21.1981Z" stroke="black" stroke-miterlimit="10" stroke-linecap="square"/>
</svg>
