<svg width="149" height="49" viewBox="0 0 149 49" fill="none" xmlns="http://www.w3.org/2000/svg">
<path d="M22.3677 29.9036C21.2964 33.9866 17.5425 36.5381 17.5425 36.5381C17.5425 36.5381 15.5255 32.4699 16.5968 28.3869C17.6681 24.3039 21.422 21.7523 21.422 21.7523C21.422 21.7523 23.439 25.8206 22.3677 29.9036Z" fill="#3F3D56"/>
<path d="M20.7425 29.0399C17.7419 32.0067 17.4062 36.5358 17.4062 36.5358C17.4062 36.5358 21.9353 36.2547 24.9359 33.2878C27.9364 30.321 28.2721 25.7918 28.2721 25.7918C28.2721 25.7918 23.743 26.073 20.7425 29.0399Z" fill="#5D9ED3"/>
<path d="M24.5053 35.3426H12.7685C11.4811 35.3426 10.4375 36.3871 10.4375 37.6756V39.9937C10.4375 41.2821 11.4811 42.3266 12.7685 42.3266H24.5053C25.7927 42.3266 26.8363 41.2821 26.8363 39.9937V37.6756C26.8363 36.3871 25.7927 35.3426 24.5053 35.3426Z" fill="#5D9ED3"/>
<g opacity="0.7">
<path opacity="0.7" d="M137.351 30.8813V28.3647H124.778V40.0039C124.778 40.3261 124.842 40.6452 124.965 40.9428C125.088 41.2405 125.269 41.511 125.496 41.7389C125.724 41.9667 125.994 42.1475 126.292 42.2708C126.589 42.3941 126.908 42.4575 127.23 42.4575H134.899C135.549 42.4575 136.173 42.199 136.633 41.7389C137.092 41.2787 137.351 40.6546 137.351 40.0039V37.4244C138.217 37.4227 139.046 37.0773 139.658 36.4639C140.27 35.8506 140.613 35.0194 140.613 34.1528C140.613 33.2862 140.27 32.4551 139.658 31.8417C139.046 31.2284 138.217 30.8829 137.351 30.8813ZM137.351 36.1661V32.1395C137.884 32.1395 138.396 32.3517 138.773 32.7292C139.15 33.1068 139.362 33.6189 139.362 34.1528C139.362 34.6868 139.15 35.1988 138.773 35.5764C138.396 35.954 137.884 36.1661 137.351 36.1661Z" fill="url(#paint0_linear)"/>
</g>
<path d="M136.947 31.2752C136.357 31.2752 135.78 31.4504 135.289 31.7786C134.799 32.1068 134.416 32.5734 134.19 33.1192C133.964 33.665 133.905 34.2656 134.02 34.845C134.135 35.4245 134.42 35.9567 134.837 36.3744C135.254 36.7922 135.786 37.0767 136.365 37.1919C136.944 37.3072 137.544 37.248 138.09 37.022C138.635 36.7959 139.101 36.413 139.429 35.9218C139.757 35.4306 139.932 34.8531 139.932 34.2623C139.932 33.4701 139.618 32.7103 139.058 32.1501C138.498 31.5899 137.739 31.2752 136.947 31.2752ZM136.947 36.1005C136.584 36.1005 136.229 35.9927 135.927 35.7907C135.625 35.5887 135.39 35.3016 135.251 34.9657C135.112 34.6298 135.075 34.2602 135.146 33.9037C135.217 33.5471 135.392 33.2195 135.649 32.9625C135.906 32.7054 136.233 32.5303 136.589 32.4594C136.945 32.3885 137.315 32.4249 137.65 32.564C137.986 32.7031 138.273 32.9387 138.475 33.241C138.676 33.5433 138.784 33.8987 138.784 34.2623C138.784 34.7498 138.591 35.2173 138.246 35.5621C137.902 35.9068 137.435 36.1005 136.947 36.1005Z" fill="#5D9ED3"/>
<path opacity="0.1" d="M136.947 31.2752C136.357 31.2752 135.78 31.4504 135.289 31.7786C134.799 32.1068 134.416 32.5734 134.19 33.1192C133.964 33.665 133.905 34.2656 134.02 34.845C134.135 35.4245 134.42 35.9567 134.837 36.3744C135.254 36.7922 135.786 37.0767 136.365 37.1919C136.944 37.3072 137.544 37.248 138.09 37.022C138.635 36.7959 139.101 36.413 139.429 35.9218C139.757 35.4306 139.932 34.8531 139.932 34.2623C139.932 33.4701 139.618 32.7103 139.058 32.1501C138.498 31.5899 137.739 31.2752 136.947 31.2752ZM136.947 36.1005C136.584 36.1005 136.229 35.9927 135.927 35.7907C135.625 35.5887 135.39 35.3016 135.251 34.9657C135.112 34.6298 135.075 34.2602 135.146 33.9037C135.217 33.5471 135.392 33.2195 135.649 32.9625C135.906 32.7054 136.233 32.5303 136.589 32.4594C136.945 32.3885 137.315 32.4249 137.65 32.564C137.986 32.7031 138.273 32.9387 138.475 33.241C138.676 33.5433 138.784 33.8987 138.784 34.2623C138.784 34.7498 138.591 35.2173 138.246 35.5621C137.902 35.9068 137.435 36.1005 136.947 36.1005Z" fill="black"/>
<path d="M125.468 28.9774H136.947V40.3481C136.947 40.745 136.789 41.1257 136.509 41.4064C136.229 41.6871 135.848 41.8448 135.452 41.8448H126.963C126.567 41.8448 126.186 41.6871 125.906 41.4064C125.625 41.1257 125.468 40.745 125.468 40.3481V28.9774Z" fill="#5D9ED3"/>
<path d="M149 41.8448H0V46.8998H149V41.8448Z" fill="#E0E0E0"/>
<path d="M100.889 0H48.1113C45.8407 0 44 2.16101 44 4.82676V37.1732C44 39.839 45.8407 42 48.1113 42H100.889C103.159 42 105 39.839 105 37.1732V4.82676C105 2.16101 103.159 0 100.889 0Z" fill="#535461"/>
<path d="M74.4998 25.9903C75.641 25.9903 76.5661 25.0645 76.5661 23.9224C76.5661 22.7803 75.641 21.8544 74.4998 21.8544C73.3587 21.8544 72.4336 22.7803 72.4336 23.9224C72.4336 25.0645 73.3587 25.9903 74.4998 25.9903Z" fill="white"/>
<path d="M142.686 46.8998H6.31348V48.9678H142.686V46.8998Z" fill="#E0E0E0"/>
<path opacity="0.1" d="M142.686 46.8998H6.31348V47.5892H142.686V46.8998Z" fill="black"/>
<path opacity="0.1" d="M134.881 28.9774V39.6045C134.881 40.1987 134.645 40.7685 134.225 41.1886C133.806 41.6088 133.236 41.8448 132.643 41.8448H133.79C134.384 41.8448 134.954 41.6088 135.373 41.1886C135.793 40.7685 136.029 40.1987 136.029 39.6045V28.9774H134.881Z" fill="black"/>
<path d="M127.734 20.4122C127.54 20.4453 127.322 20.4976 127.227 20.6698C127.076 20.943 127.349 21.251 127.598 21.4387C128.058 21.7855 128.543 22.1262 128.856 22.6102C129.168 23.0943 129.267 23.7698 128.925 24.2337C128.478 24.8395 127.414 24.9698 127.31 25.7153C127.244 26.1939 127.658 26.6024 128.077 26.8425C129.111 27.4353 130.444 27.5935 131.193 28.5211C131.502 27.8834 132.195 27.5148 132.886 27.3574C133.577 27.2 134.295 27.2118 134.995 27.105C135.221 27.0706 135.476 27.0014 135.577 26.7961C135.773 26.3985 135.215 25.9215 135.407 25.5223C135.554 25.2185 135.985 25.2421 136.299 25.1204C136.811 24.9223 137.022 24.2628 136.877 23.733C136.731 23.2032 136.321 22.7892 135.889 22.4497C134.726 21.5349 133.327 20.9969 131.913 20.6099C131.255 20.4299 130.482 20.1477 129.799 20.1204C129.139 20.0941 128.387 20.3004 127.734 20.4122Z" fill="#EEEEEE"/>
<defs>
<linearGradient id="paint0_linear" x1="132.699" y1="42.4575" x2="132.699" y2="28.3647" gradientUnits="userSpaceOnUse">
<stop stop-color="#808080" stop-opacity="0.25"/>
<stop offset="0.53514" stop-color="#808080" stop-opacity="0.12"/>
<stop offset="1" stop-color="#808080" stop-opacity="0.1"/>
</linearGradient>
</defs>
</svg>
