<svg width="40" height="40" viewBox="0 0 40 40" fill="none" xmlns="http://www.w3.org/2000/svg">
<path d="M27.5 8.33333V5M12.5 8.33333V5M5.41667 13.3333H34.5833M5 20C5 12.9283 5 11.06 7.19667 8.86333C9.39333 6.66667 12.93 6.66667 20 6.66667C27.0717 6.66667 30.6067 6.66667 32.8033 8.86333C35 11.06 35 12.93 35 20C35 27.0717 35 30.6067 32.8033 32.8033C30.6067 35 27.07 35 20 35C12.9283 35 9.39333 35 7.19667 32.8033C5 30.6067 5 27.07 5 20Z" stroke="black" stroke-width="1.5" stroke-linecap="round" stroke-linejoin="round"/>
</svg>
