<svg width="360" height="119" viewBox="0 0 360 119" fill="none" xmlns="http://www.w3.org/2000/svg">
<path fill-rule="evenodd" clip-rule="evenodd" d="M36.2407 0.408889C33.6975 0.781005 28.418 2.63742 24.9782 4.36933C22.3905 5.6722 19.7394 8.40198 18.7712 10.761C17.9423 12.7808 17.8002 15.4796 18.5 15.9123C18.8082 16.1026 18.8017 16.502 18.4805 17.1018C17.7391 18.488 19.4904 21.4265 24.2442 26.7713C35.8367 39.8046 54.642 52.6726 75.9988 62.1852L81.4306 64.6049L72.9904 67.648C68.3482 69.3221 64.1337 70.7457 63.6246 70.8124C63.1155 70.879 61.241 70.1903 59.4591 69.2818C57.6772 68.3737 53.8241 66.8348 50.8967 65.8619C46.3448 64.3494 44.966 64.0898 41.3745 64.0694C37.4936 64.0476 37.0044 64.1513 34.9337 65.4343C30.4331 68.2228 28.0815 75.1917 29.7866 80.6859C30.1781 81.9472 30.454 83.0223 30.3993 83.0755C30.3452 83.1292 27.1767 83.9151 23.3583 84.8227C12.7891 87.3345 1.4442 90.4868 0.674051 91.126C-0.466364 92.072 -0.133126 93.716 1.47243 95.067C2.89703 96.2657 3.12428 96.3083 6.91069 96.0764C9.08368 95.9436 17.8391 95.4873 26.3667 95.0619C45.371 94.1145 45.8486 94.0645 46.1268 93.0009C46.324 92.2479 46.7109 92.315 50.5866 93.7771C59.8377 97.2659 64.2994 97.8232 69.7085 96.1658C72.2601 95.384 73.3061 94.756 75.0519 92.9565C77.2036 90.7386 77.2239 90.7303 77.366 91.9508C77.5789 93.778 79.2326 94.4436 82.9811 94.2122C84.7171 94.1048 86.3593 93.7961 86.63 93.5253C86.9003 93.255 87.1813 91.9267 87.2539 90.5734C87.3849 88.1315 87.3993 88.1102 89.1589 87.7187C90.1337 87.5016 93.8405 86.6162 97.3959 85.7516C100.951 84.8866 104.333 84.1789 104.911 84.1789C106.27 84.1789 120.673 89.9032 128.421 93.523C139.225 98.5697 146.572 100.671 155.056 101.14C161.014 101.47 162.603 101.07 162.351 99.3052C162.214 98.3434 161.909 98.2795 155.959 97.962C147.343 97.502 140.301 95.5474 130.461 90.8839C126.439 88.978 123.003 87.4187 122.825 87.4187C122.145 87.4187 106.909 81.1867 102.299 79.0235C97.3714 76.7102 89.0548 71.6223 88.0745 70.3204C87.776 69.9242 87.4141 69.0129 87.2701 68.2955C87.0489 67.1935 86.8105 67.0144 85.7298 67.1384C84.6857 67.2588 84.427 67.542 84.3145 68.6889C84.0345 71.5441 87.2451 74.4451 96.6165 79.8061L99.9873 81.7343L97.3108 82.4803C95.8385 82.8909 93.0722 83.549 91.163 83.9434C89.2538 84.3372 85.9214 85.1587 83.7577 85.7678C76.9953 87.6728 77.5146 87.7126 76.5741 85.2138C75.9548 83.568 74.5464 81.8398 70.922 78.2778C67.9354 75.3421 66.3303 73.4514 66.7112 73.3186C73.7638 70.8573 81.9119 67.7646 82.7163 67.2439C83.2893 66.8732 83.7577 66.26 83.7577 65.8804C83.7577 65.3593 84.5454 65.5879 86.986 66.8167C88.7614 67.7109 90.3086 68.4427 90.4243 68.4427C90.5396 68.4427 90.9524 68.1243 91.3416 67.735C92.9393 66.1373 91.2287 64.9252 82.3488 61.3618C68.8453 55.9435 52.717 46.9016 41.9905 38.7359C30.9478 30.33 19.4872 17.7854 20.8646 15.6115C21.083 15.2676 21.2645 14.509 21.2686 13.9259C21.2788 12.3522 22.8529 9.56507 24.3534 8.46261C25.398 7.69523 29.8023 5.49771 30.2952 5.49771C30.3549 5.49771 30.3077 5.99989 30.1906 6.6136C30.0439 7.38051 30.2452 7.86693 30.833 8.16824C32.5705 9.0578 39.3843 10.6328 40.2738 10.3505C41.3939 9.99503 43.1702 6.67237 42.8236 5.58055C42.6857 5.14641 41.9983 4.43459 41.2967 3.99953L40.0202 3.20809L42.3459 3.19606C43.6252 3.18911 47.27 3.81486 50.4455 4.5864C65.7499 8.30524 68.7319 9.59052 112.453 31.3089C138.209 44.1033 148.523 49.0038 149.696 49.0038C150.561 49.0038 151.389 47.843 151.087 47.0544C150.944 46.6809 147.972 45.0568 144.483 43.4447C140.995 41.8332 131.996 37.4469 124.487 33.698C86.5583 14.7631 71.4811 7.61424 63.856 4.94926C62.4559 4.46004 57.5805 3.13358 53.0216 2.00149C44.506 -0.112716 41.6559 -0.383014 36.2407 0.408889ZM38.0532 5.98229C39.8869 6.83159 39.6185 7.32172 37.5903 6.82788C31.7203 5.3982 31.3245 5.23575 32.4664 4.72247C33.5494 4.23511 34.9749 4.55677 38.0532 5.98229ZM58.8806 9.50119C58.0456 10.0927 57.8392 10.6833 57.8392 12.4795C57.8392 13.712 57.4226 15.7767 56.9135 17.0685C55.6805 20.1972 55.7389 21.4339 57.1736 22.5623C59.1471 24.1146 61.3081 24.6362 62.8012 23.9207C64.9247 22.9029 67.2342 15.8244 66.4552 12.7211C66.2743 11.9991 65.4069 11.1091 64.1985 10.406C61.527 8.85092 60.133 8.61395 58.8806 9.50119ZM63.1965 15.7489C63.0363 16.9542 62.6036 18.6629 62.2342 19.5465C61.7057 20.8114 61.3627 21.1007 60.6199 20.9063C59.2434 20.5462 59.2119 20.3069 60.1746 17.5183C60.6555 16.1257 61.0554 14.4174 61.0637 13.7227C61.0781 12.5318 61.1475 12.4911 62.2828 13.0085C63.4033 13.519 63.4667 13.7097 63.1965 15.7489ZM70.891 16.2354C70.0667 17.0597 70.2005 19.36 71.0928 19.7024C72.7946 20.3555 74.3086 17.8155 73.0913 16.3488C72.4156 15.5347 71.632 15.4944 70.891 16.2354ZM75.1616 19.1211C74.8019 20.5536 75.1579 21.6227 76.1164 21.9907C77.2549 22.4276 78.2667 21.2427 78.1116 19.6534C77.9978 18.487 77.7423 18.1992 76.7157 18.0807C75.6966 17.9631 75.4027 18.1598 75.1616 19.1211ZM81.0645 19.7839C80.6817 20.0264 80.5091 20.8447 80.6017 21.9754C80.7201 23.4208 80.9502 23.8082 81.7592 23.9235C83.5902 24.184 84.3075 20.8262 82.6538 19.7367C81.9976 19.3044 81.812 19.31 81.0645 19.7839ZM85.2564 22.2346C84.1382 23.3528 85.0499 26.3251 86.5111 26.3251C88.1421 26.3251 88.3791 22.0268 86.7606 21.7949C86.2487 21.7213 85.5715 21.9194 85.2564 22.2346ZM90.3475 25.0116C89.0469 26.3121 90.2123 29.3529 91.8878 29.0303C92.614 28.8906 92.7829 28.4661 92.7829 26.7814C92.7829 25.0542 92.6265 24.683 91.8517 24.5719C91.3398 24.4983 90.6627 24.6964 90.3475 25.0116ZM95.8839 27.8062C95.0929 28.5971 95.197 30.7308 96.0616 31.4486C97.0641 32.2808 98.2924 31.4644 98.4859 29.8375C98.7312 27.7742 97.1502 26.5398 95.8839 27.8062ZM100.01 30.3924C99.3602 31.6055 100.047 33.9215 101.117 34.128C102.367 34.3686 103.132 33.0607 102.773 31.294C102.41 29.5107 100.768 28.9748 100.01 30.3924ZM103.914 31.0691C103.815 31.3875 103.607 32.7316 103.452 34.0567C103.297 35.3818 102.861 37.3428 102.482 38.4152C102.104 39.4871 101.902 40.7029 102.034 41.1167C102.324 42.0308 106.957 44.3755 108.473 44.3755C109.936 44.3755 110.388 43.7266 111.255 40.3748C112.395 35.9672 112.25 33.9683 110.718 32.9366C107.532 30.7928 104.277 29.8991 103.914 31.0691ZM350.117 33.3115C348.335 33.5397 345.211 33.9322 343.174 34.184C341.138 34.4357 335.176 35.2656 329.925 36.0283C320.511 37.396 286.31 41.5481 261.485 44.3375C254.484 45.1239 247.86 45.8852 246.763 46.0296L244.77 46.2916L245.088 43.4706C245.522 39.643 244.81 38.8215 241.064 38.8215H238.373L234.424 42.8606C232.252 45.0818 230.475 47.0604 230.475 47.2575C230.475 47.4542 230.319 47.6134 230.128 47.6107C229.937 47.6083 225.095 48.1179 219.367 48.7437C201.984 50.6417 193.96 51.3078 187.803 51.3633C182.476 51.411 181.796 51.3226 180.523 50.4163C178.249 48.7969 170.768 45.4289 167.695 44.6416C163.945 43.6808 159.266 43.6623 158.904 44.6069C158.757 44.9887 158.295 45.3025 157.877 45.3039C154.323 45.3159 149.6 49.0306 148.51 52.6731C148.128 53.9463 147.783 54.4157 147.439 54.1301C147.144 53.8853 146.057 53.8723 144.842 54.0991C143.693 54.3138 139.026 54.9234 134.472 55.4538C129.918 55.9837 125.912 56.6493 125.57 56.933C125.229 57.2163 124.95 57.9739 124.95 58.6163C124.95 60.2441 132.8 67.9335 137.909 71.3094C143.452 74.9723 151.08 78.1487 154.662 78.2862C157.07 78.3787 157.647 78.5861 158.902 79.8084C159.702 80.5864 162.439 82.1198 164.984 83.2153C167.53 84.3108 170.218 85.4966 170.957 85.8502C171.696 86.2038 172.529 86.4935 172.808 86.494C173.087 86.494 175.919 85.4614 179.101 84.1983C196.34 77.3563 203.116 74.7455 209.157 72.6169C212.832 71.3219 216.106 70.0408 216.432 69.7705C216.886 69.3938 217.207 69.7349 217.805 71.2284C218.372 72.647 219.005 73.3538 220.127 73.8226C222.041 74.6224 223.278 74.3498 230.696 71.495C233.745 70.3218 236.371 69.4151 236.531 69.4808C236.691 69.5461 236.144 72.6197 235.316 76.3108C234.487 80.0019 233.451 85.4549 233.012 88.4291L232.216 93.8359L227.527 90.9298C224.948 89.3311 220.385 86.4269 217.387 84.4756C211.172 80.4305 211.32 81.0363 215.405 76.3969C218.074 73.3667 218.36 72.7118 217.423 71.7751C216.391 70.7425 215.685 71.2099 212.37 75.1236L209.063 79.0272L206.558 77.1767C203.805 75.1426 202.107 74.9404 201.868 76.6181C201.754 77.4211 202.624 78.2556 206.265 80.8364C208.762 82.6058 213.148 85.5396 216.012 87.3558C218.876 89.1724 223.546 92.1354 226.39 93.9405C229.235 95.7455 232.098 97.4543 232.754 97.738C233.819 98.1985 233.599 98.2809 230.706 98.5058C228.925 98.6447 227.207 98.9266 226.888 99.1325C225.212 100.217 227.806 103.919 231.723 106.031C234.179 107.356 239.652 109.082 241.814 109.213C246.538 109.5 253.652 109.32 258.245 108.796C263.211 108.23 270.671 107.546 284.626 106.377C287.808 106.111 293.014 105.589 296.194 105.218C299.375 104.847 302.737 104.543 303.667 104.543C305.023 104.543 305.642 104.219 306.794 102.907C308.561 100.895 308.605 99.8138 306.973 98.5304C305.827 97.6288 305.325 97.5635 301.303 97.7954C298.877 97.9356 283.405 98.1786 266.923 98.336C238.338 98.6086 236.955 98.5836 236.955 97.794C236.955 97.339 236.562 96.5365 236.082 96.0107C235.225 95.074 235.229 94.9231 236.292 88.1662C237.232 82.1934 239.602 70.8711 240.022 70.3472C240.101 70.2491 240.686 70.5092 241.321 70.9258C243.755 72.5202 245.748 71.52 245.748 68.7046C245.748 67.6577 245.939 67.517 247.355 67.517C249.418 67.517 261.018 64.522 270.471 61.5488L277.837 59.2323L279.125 60.1497C281.495 61.8367 285.545 63.4534 286.686 63.1673C288.028 62.8304 288.781 60.8398 288.271 58.9778C288.065 58.2271 287.942 57.5902 287.997 57.5625C288.146 57.4884 292.43 56.5951 299.205 55.2261C302.515 54.5573 305.671 53.7247 306.22 53.3762C306.827 52.9906 307.335 52.0506 307.516 50.9745L307.815 49.207L316.932 47.2793C321.947 46.2194 328.653 44.824 331.835 44.1792C347.43 41.0181 355.156 38.9377 358.448 37.0128C362.677 34.5399 357.721 32.3377 350.117 33.3115ZM108.018 34.937C108.878 35.267 108.972 37.1215 108.237 39.2302C107.815 40.4419 107.548 40.6492 106.733 40.3988C106.188 40.2318 105.676 40.0369 105.595 39.9661C105.47 39.8583 105.835 38.3064 106.706 35.2346C106.893 34.5746 107.007 34.5491 108.018 34.937ZM350.223 36.7869C350.069 36.9406 349.67 36.9572 349.336 36.8235C348.967 36.6758 349.076 36.5661 349.615 36.5439C350.103 36.524 350.376 36.6333 350.223 36.7869ZM113.4 37.639C112.671 38.5174 112.948 40.222 113.919 40.8302C115.521 41.8341 117.001 38.9261 115.6 37.5256C114.859 36.7846 114.076 36.8249 113.4 37.639ZM345.72 37.7644C344.065 38.1444 340.316 39.0446 337.389 39.7652C334.461 40.4854 330.088 41.4083 327.669 41.8156C325.251 42.2229 319.86 43.3064 315.69 44.2232C308.503 45.8029 308.04 45.851 306.835 45.1392C305.755 44.5014 305.013 44.4569 301.921 44.8453C298.316 45.2979 296.831 45.5534 284.565 47.8305C278.755 48.9094 278.124 48.9469 276.596 48.3086C274.299 47.3487 272.376 47.4269 271.608 48.5113C271.133 49.181 269.275 49.773 264.262 50.8523C260.571 51.6466 255.468 52.8948 252.922 53.6261C241.26 56.9756 237.617 57.4537 234.738 56.012C231.406 54.3435 230.721 54.3791 229.255 56.2975C228.528 57.25 227.932 58.2359 227.931 58.4881C227.929 59.0639 222.819 60.9157 219.136 61.6756L216.359 62.2486L216.379 64.6512C216.392 66.3025 216.213 67.0542 215.807 67.0542C214.488 67.0542 200.379 72.3277 179.193 80.7392L173.036 83.1834L167.506 80.8539C164.465 79.5728 161.976 78.3681 161.976 78.1765C161.976 77.9853 163.154 77.7071 164.594 77.5586C166.034 77.41 167.358 77.0518 167.537 76.763C167.775 76.3779 168.938 76.451 171.886 77.0365C175.339 77.7224 176.284 77.7525 178.547 77.2499C179.997 76.9277 181.939 76.2807 182.863 75.8123C185.553 74.4484 188.235 71.0317 189.285 67.6318C190.914 62.3588 190.392 59.3314 187.289 56.062L185.862 54.5578L189.771 54.5647C193.758 54.5712 198.736 54.1282 221.218 51.7664C228.219 51.0305 236.446 50.2025 239.5 49.9262C242.555 49.6494 249.428 48.9149 254.774 48.2938C260.119 47.6727 268.45 46.7364 273.287 46.2134C295.009 43.8645 328.765 39.5931 340.629 37.6922C342.792 37.3455 345.5 37.0646 346.646 37.0678C348.707 37.0739 348.697 37.0808 345.72 37.7644ZM117.761 39.9786C117.642 40.3604 117.441 41.0005 117.315 41.4004C116.939 42.5908 117.953 43.9853 119.077 43.8252C120.216 43.6623 120.892 41.4601 120.223 40.0943C119.737 39.1034 118.059 39.0247 117.761 39.9786ZM241.775 44.3176C241.604 45.4951 241.439 46.4818 241.408 46.5105C241.377 46.5397 239.925 46.7035 238.18 46.8757L235.009 47.1881L237.382 44.4597C239.352 42.1942 239.952 41.7693 240.92 41.954C242.022 42.1645 242.068 42.2923 241.775 44.3176ZM122.626 43.0046C121.659 44.811 123.33 46.9164 124.777 45.7154C125.653 44.9883 125.587 42.6903 124.68 42.3423C123.507 41.8919 123.162 42.0035 122.626 43.0046ZM128.057 44.6629C127.352 45.3669 127.722 48.0434 128.588 48.5067C129.963 49.2426 131.071 48.1346 130.887 46.2064C130.762 44.8874 130.529 44.5828 129.561 44.4699C128.915 44.3945 128.238 44.4815 128.057 44.6629ZM133.854 47.6903C132.514 49.0297 133.667 51.579 135.457 51.2342C136.737 50.9875 136.649 47.4357 135.358 47.2506C134.846 47.177 134.169 47.3751 133.854 47.6903ZM174.704 50.8283C179.286 53.117 184.1 56.7155 185.734 59.0741C187.262 61.2794 187.344 63.7038 186.009 67.2722C184.697 70.7772 182.686 72.7952 179.588 73.7153C178.209 74.1244 176.528 74.4595 175.851 74.4595C172.764 74.4595 164.361 71.6496 161.119 69.5331L160.03 68.8222L162.276 67.7794C164.823 66.5965 167.607 63.7445 168.734 61.1633C169.722 58.9019 169.715 54.3879 168.721 52.0122C168.295 50.994 167.3 49.4935 166.51 48.678L165.075 47.1946L168.038 48.0869C169.668 48.5775 172.667 49.811 174.704 50.8283ZM304.382 50.6922C304.273 50.8014 302.543 51.2041 300.537 51.5868C298.532 51.9701 294.763 52.7953 292.161 53.4206C286.063 54.8868 285.568 54.8642 283.795 53.0355L282.319 51.5128L290.531 49.9896C295.047 49.1514 299.888 48.3239 301.288 48.1499C303.8 47.8379 303.839 47.8509 304.207 49.1639C304.413 49.8952 304.491 50.583 304.382 50.6922ZM162.451 49.4726C165.373 50.9634 167.068 55.2821 166.117 58.8121C165.232 62.1005 161.143 65.6657 158.256 65.6657C156.587 65.6657 153.162 62.9429 152.22 60.8671C148.745 53.2146 155.355 45.8528 162.451 49.4726ZM139.66 50.6598C138.969 52.1756 139.657 53.4007 141.199 53.4007C142.119 53.4007 142.331 53.1359 142.456 51.8294C142.689 49.3842 140.633 48.5238 139.66 50.6598ZM276.996 51.9451C279.169 52.9564 285.089 58.2812 285.089 59.2231C285.089 60.0044 284.307 59.6656 280.867 57.3926C277.208 54.9752 272.874 50.8519 274.001 50.8597C274.372 50.8621 275.72 51.3503 276.996 51.9451ZM272.576 54.773C274.04 56.2642 274.421 56.9071 273.946 57.0834C268.689 59.0305 250.62 63.9255 246.655 64.4758C244.587 64.7632 244.527 64.7345 243.013 62.7124C242.166 61.5821 241.487 60.4931 241.504 60.2927C241.545 59.8104 266.142 53.3618 270.298 52.7439C270.436 52.7231 271.461 53.6363 272.576 54.773ZM149.441 62.5768C150.571 64.9108 157.007 70.7272 160.858 72.8947C163.85 74.5784 163.647 74.7612 158.293 75.2079C155.45 75.4448 154.088 75.3352 152.173 74.715C144.984 72.3846 136.83 67.3888 131.824 62.2458L129.07 59.4175L131.291 59.1037C132.512 58.9311 136.306 58.4432 139.72 58.0193C143.135 57.5953 146.363 57.0867 146.894 56.8886C147.758 56.566 147.892 56.7423 148.17 58.5598C148.34 59.6776 148.912 61.4849 149.441 62.5768ZM234.123 59.2694C237.946 61.5724 242.046 65.6532 242.046 67.1542C242.046 67.7688 237.146 63.8199 234.193 60.8259C231.479 58.0734 231.461 57.6652 234.123 59.2694ZM232.787 63.943C234.132 65.1589 235.151 66.2303 235.052 66.3238C234.787 66.5733 224.944 70.3023 223.179 70.8221C220.968 71.4728 221.094 71.6533 219.542 65.6254C219.399 65.0696 219.947 64.7525 221.79 64.3244C223.13 64.0125 225.476 63.2655 227.004 62.6633C228.531 62.0616 229.907 61.6057 230.062 61.6502C230.216 61.6951 231.443 62.7267 232.787 63.943ZM45.0155 67.9872C46.6072 69.2392 47.2654 71.4539 47.1455 75.1547C47.0631 77.6998 46.8215 78.5379 45.738 80.0338C44.0297 82.3915 41.3166 83.7494 38.0934 83.86C35.8339 83.9378 35.4224 83.8036 34.4491 82.6738C33.2333 81.2622 32.39 78.7157 32.3863 76.4441C32.383 74.5608 34.0025 70.1848 35.0554 69.2318C37.645 66.8885 42.7995 66.2442 45.0155 67.9872ZM58.1622 72.0741C62.1361 74.1012 71.6052 82.6886 73.1478 85.6646C74.4127 88.1037 74.2706 89.3316 72.5341 90.9747C69.1235 94.202 63.0354 94.6764 55.7565 92.2817C51.2938 90.8131 42.5658 86.9772 42.5658 86.4838C42.5658 86.2894 43.0698 86.0039 43.6858 85.8493C45.3789 85.4244 48.8635 81.6773 49.7679 79.3095C50.4038 77.6447 50.5144 76.3613 50.3029 73.0969L50.0363 68.9828L53.1368 70.0371C54.8419 70.6175 57.1033 71.5339 58.1622 72.0741ZM35.3049 86.8069C36.6253 87.2341 39.0598 88.3277 40.7145 89.2367L43.7229 90.89L40.9459 91.0029C34.7259 91.2565 11.5672 92.5534 8.54773 92.8176C6.76583 92.9736 5.41205 92.9912 5.53933 92.857C5.93134 92.4428 30.7405 86.1422 32.2965 86.0617C32.6307 86.0446 33.9844 86.3797 35.3049 86.8069ZM84.2205 90.1957C84.2205 90.9825 83.9118 91.1214 82.1651 91.1214C79.7931 91.1214 78.9424 90.3582 80.846 89.9375C81.5565 89.7806 82.3461 89.5825 82.6006 89.4973C83.7262 89.122 84.2205 89.3349 84.2205 90.1957ZM164.599 100.687C164.429 100.856 164.29 101.484 164.29 102.081C164.29 103.019 165.186 103.601 170.889 106.371C183.504 112.499 186.971 113.758 193.911 114.733C197.348 115.215 202.867 115.829 206.176 116.097C211.59 116.534 215.986 116.807 235.566 117.917C242.56 118.315 244.011 118.017 244.969 115.99C246.165 113.461 246.339 112.168 245.569 111.529C244.369 110.533 243.317 111.143 242.618 113.24L241.956 115.225L239.34 114.979C237.901 114.845 231.1 114.418 224.227 114.032C217.354 113.646 209.648 113.122 207.102 112.868C204.557 112.614 201.609 112.407 200.553 112.409C199.496 112.41 196.213 111.998 193.256 111.492C188.571 110.692 186.795 110.093 179.441 106.835C174.799 104.78 169.911 102.485 168.578 101.738C166.144 100.372 165.171 100.115 164.599 100.687ZM301.982 101.297C298.571 101.81 290.687 102.656 284.626 103.16C273.187 104.112 263.364 105.009 258.939 105.504C252.161 106.263 242.353 106.73 241.788 106.321C241.519 106.126 240.165 105.671 238.78 105.31C235.772 104.526 233.36 103.522 232.095 102.525C231.247 101.857 232.327 101.79 245.054 101.718C255.986 101.656 282.159 101.32 302.214 100.984L304.297 100.949L301.982 101.297Z" fill="#6A00FF"/>
</svg>
