<?xml version="1.0" encoding="utf-8"?>
<!-- Generator: Adobe Illustrator 27.9.0, SVG Export Plug-In . SVG Version: 6.00 Build 0)  -->
<svg version="1.1" id="Layer_1" xmlns="http://www.w3.org/2000/svg" xmlns:xlink="http://www.w3.org/1999/xlink" x="0px" y="0px"
	 viewBox="0 0 420 120" style="enable-background:new 0 0 420 120;" xml:space="preserve">
<style type="text/css">
	.st0{fill:#886CD3;}
	.st1{clip-path:url(#Mask_00000000917775574699543710000015394813268418393743_);}
	.st2{fill:#F1A87A;}
	.st3{fill:#FFDE00;}
	.st4{fill:#69DA40;}
	.st5{fill:#FAAE7C;}
	.st6{fill:#1FBAFF;}
	.st7{fill:#E8B38A;}
	.st8{fill:#FF4DEA;}
	.st9{fill:#FF79D2;}
	.st10{fill:#FFFFFF;}
	.st11{fill:#00DAE2;}
</style>
<g id="Archive">
	<g id="holi-copy">
		<polygon id="Mask" class="st0" points="0,0 420,0 420,120 0,120 		"/>
	</g>
</g>
<g>
	<defs>
		<polygon id="Mask_00000003797814022156694320000010823139489746459305_" points="0,0 420,0 420,120 0,120 		"/>
	</defs>
	<clipPath id="Mask_00000041254387351407359780000014319985878370610312_">
		<use xlink:href="#Mask_00000003797814022156694320000010823139489746459305_"  style="overflow:visible;"/>
	</clipPath>
	<g style="clip-path:url(#Mask_00000041254387351407359780000014319985878370610312_);">
		<g>
			<path class="st2" d="M237.2,139.2c0,0,0-24-1.1-26.2c-1.1-2.2-5.9-4.1-6.7-5.9c-0.8-1.8-5.9-8.3-6.6-9c-0.7-0.7-2.7-2.6-0.9-2.7
				c1.8-0.1,3.2,0.1,4.7,2.2c1.5,2.1,4.5,2.8,4.8,1.7c0.3-1.1,0.5-3.7-0.2-5.7c-0.7-2-5-11.6-3.6-13c1.3-1.3,2.8,2.2,3.3,3.5
				c0.5,1.2,3.3,7.9,4.4,7.7c1.2-0.2,0.1-14.6,1.4-15.6c1.3-1,2.5,0.6,2.6,2.5c0.1,1.9,0.7,12.5,1.5,12.6c0.8,0.1,4.7-12.3,6.2-11.9
				c1.5,0.4,0.8,1.7,0.5,4.1c-0.3,2.5-2.6,9.1-1.8,9.2c0.8,0.2,6.2-8.2,7.1-5.8c0.9,2.3-4.5,6.6-5.1,10.3c-0.5,3.7-0.4,5.1-0.9,7.8
				c-0.5,2.8-1.1,3.2-1,5.5c0.1,2.3,3.5,28,3.5,28L237.2,139.2z"/>
			<path class="st3" d="M253,86.9c-0.9-2.3-6.3,6-7.1,5.8c-0.8-0.2,1.4-6.8,1.8-9.2c0.3-2.3,1-3.6-0.5-4.1s-5.4,12-6.2,11.9
				c-0.5-0.1-0.9-3.8-1.2-7.2c-0.1,0-0.2,0.1-0.3,0.1c-0.8,0.1-1.5-0.8-1.4-1.6c0-0.8,0.5-1.5,0.9-2.2c0.2-0.3,0.4-0.5,0.5-0.8
				c0-0.4,0-0.7,0-0.9c-0.1-1.9-1.2-3.5-2.6-2.5c-1,0.7-0.7,8.9-0.9,13.1c0.8,1.4,1,3,0.6,4.5c-2.8-1.8-4.7-4.9-5-8.2
				c0-0.1,0-0.1,0-0.2c-0.3-0.6-0.4-1-0.6-1.3c-0.5-1.2-2-4.8-3.3-3.5c-1.3,1.3,2.9,11,3.6,13s0.4,4.6,0.2,5.7s-3.3,0.4-4.8-1.7
				c-1.5-2.1-2.9-2.3-4.7-2.2c-1.8,0.1,0.2,2,0.9,2.7c0.7,0.7,5.8,7.3,6.6,9c0.2,0.5,0.8,1,1.4,1.5c0.1,0,0.1-0.1,0.2-0.2
				c0.5-0.6,0.1-1.5,0.2-2.2c0.2-1.1,1.6-1.7,2.7-1.4c1.1,0.4,1.8,1.4,2.2,2.5c0.4,1.1,0.5,2.2,0.9,3.3c0.3,0.9,0.7,1.7,1.2,2.5
				c0.1,0.2,0.3,0.4,0.5,0.5c0.6,0.2,1-0.6,1.6-0.8c1.1-0.3,2.2,1.5,3.1,0.8c0.2-0.1,0.3-0.3,0.4-0.5c0.4-0.9,0.7-1.8,1-2.8
				c0.1-0.3,0.1-0.5,0.3-0.7c0.2-0.1,0.4-0.1,0.6-0.1c0.1,0,0.2,0,0.3,0c0.1-1.5,0.5-2.2,1-4.4c0.4-2.3,0.4-3.6,0.7-6.2
				c-0.3-0.6-0.4-1.2-0.4-1.9c0.1-0.9,0.7-1.6,1.5-2.2C250.5,91.8,253.7,88.8,253,86.9z"/>
		</g>
		<g>
			<path class="st2" d="M276.8,144.7c0,0-6.1-21.1-8.7-24.2c-2.6-3.1-7.8-3.1-10.1-6.3s-7.2-7.1-5.8-8.1c1.4-0.9,4,1.2,6.1,2.8
				c2.1,1.6,4.6,1.2,4.8,0.3c0.1-0.9-3.7-17.8-1.8-18.2c2-0.4,4,12.6,4.8,12.4c0.8-0.3,0.2-15.2,2.2-15c2,0.2,0.5,14.8,1.6,14.6
				c1.1-0.2,2.2-11,3.9-11.2c1.7-0.1-0.6,11.8,0,11.6c0.7-0.2,2.2-7.1,3.3-7.1s-1,10.1-0.9,10.9c0.1,0.8,0.2,6,0.5,8.6
				s12.6,24.3,12.2,24.5C288.6,140.5,276.8,144.7,276.8,144.7z"/>
			<path class="st4" d="M277.2,96.4c-1.2,0-2.7,6.8-3.3,7.1c-0.7,0.2,1.7-11.7,0-11.6c-1.7,0.1-2.8,10.9-3.9,11.2
				c-1.1,0.2,0.4-14.4-1.6-14.6c-2-0.2-1.4,14.7-2.2,15c-0.8,0.3-2.8-12.7-4.8-12.4c-2,0.4,1.9,17.3,1.8,18.2
				c-0.1,0.9-2.6,1.3-4.8-0.3c-2.1-1.6-4.7-3.7-6.1-2.8c-1.4,0.9,3.5,4.8,5.8,8.1c0.6,0.9,1.4,1.5,2.4,2c-0.1-0.1-0.2-0.2-0.3-0.4
				c-0.3-0.4-0.6-0.9-0.7-1.4c-0.1-0.5,0-1.1,0.4-1.4c0.6-0.4,1.3-0.1,2,0c1.6,0.2,3.4-0.8,4-2.4c0.3-0.9,0.3-1.8,0.4-2.7
				c0.2-0.9,0.6-1.9,1.4-2.2c0.8-0.3,1.7-0.1,2.5-0.5c0.5-0.3,0.9-1,1.5-0.9c1.1,0,1.4,2.1,2.5,1.9c0.8-0.1,1-1.3,1.7-1.7
				c0.3-0.2,0.6-0.2,1-0.1C277.3,101.1,278,96.5,277.2,96.4z"/>
			<path class="st4" d="M276.8,115.9c-0.2-2.3-0.3-6.7-0.4-8.2c-0.8,0.2-1.5,0.6-2.2,1.1c-0.2,0.1-0.4,0.3-0.5,0.5
				c-0.4,0.7,0,1.5-0.1,2.3c-0.3,2.1-3.8,2.4-4.1,4.5c-0.1,0.8,0.3,1.5,0.9,2c0.6,0.5,1.4,0.6,2.2,0.7c0.6,0,1.2,0,1.7,0.3
				c1.3,0.6,1.6,2.6,2.8,3.3c0.5,0.3,1.2,0.4,1.8,0.4c0.3,0,0.7,0,1,0C278.2,119.4,276.9,116.7,276.8,115.9z"/>
		</g>
		<g>
			<path class="st5" d="M185.7,142.5c0,0,5.2-24.2,4.8-27.7c-0.3-3.5-2.1-10.5-2.8-14.5c-0.6-4-4.7-9.1-2.7-9.2
				c2.1-0.1,5.4,2.5,6.4,5c1,2.5,1.2,3.9,3.7,3.9c2.5,0,7.1-5.4,9.1-7.5c2-2.2,5.2-6.2,6.3-4.7c1.1,1.4-4.6,8.3-6.4,11
				c-1.1,1.7,6.1-1.9,8.1-3.3c2-1.4,7.1-6.2,7.3-3.9c0.3,2.3-7.3,8.2-8.6,9.1c-1.3,0.9-3.4,2.4-2.9,2.1c0.4-0.3,11.6-5.2,12.1-3.4
				c0.5,1.6-11.2,6.9-11.2,6.9s11.5-0.1,9.8,1.3c-1.7,1.4-10.1,1.7-11.7,2.2c-1.6,0.5-6.3,2.9-7,4.5c-0.7,1.7-1,29.2-1,29.2
				L185.7,142.5z"/>
			<path class="st6" d="M208.2,102.9c0.5-0.3,1.9-1.3,2.8-2c1.3-0.9,8.9-6.8,8.6-9.1c-0.2-1.7-3,0.5-5.3,2.3
				c-0.1,0.6-0.2,1.1-0.5,1.6c-0.3,0.4-0.7,0.7-1.1,0.9c-1.3,0.9-2.7,1.8-4,2.7c-0.2,0.1-0.4,0.3-0.7,0.3c-0.6,0.1-0.9-0.5-1.1-1.1
				c-1.8,0.8-3.2,1.2-2.7,0.4c1.8-2.8,7.5-9.6,6.4-11c-1.1-1.4-4.3,2.6-6.3,4.7c-0.6,0.6-1.3,1.5-2.2,2.4c0,0.5-0.2,0.9-0.4,1.4
				c-0.4,0.8-1.2,1.4-1.9,1.9c-0.8,0.6-1.6,1.1-2.6,1.1c-0.7,0.5-1.4,0.7-2,0.7c-2.5,0-2.7-1.5-3.7-3.9c-1-2.5-4.4-5.1-6.4-5
				c-2.1,0.1,2,5.2,2.7,9.2c0.3,1.7,0.7,3.9,1.2,6.1c1-1.4,2.8-2.5,4.5-2.2c0.4,0.1,0.8,0.2,1.2,0.2c0.8,0,1.6-0.5,2.3-0.8
				c1-0.5,2.1-0.7,3.2-0.7c0.3,0,0.5,0,0.8,0.1c0.6,0.3,0.7,1.2,0.4,1.8c-0.3,0.6-0.9,1-1.5,1.2c-1.4,0.7-2.9,1-4.4,1.1
				c-1,0.1-2.1,0-2.7,0.7c-0.6,0.6-0.6,1.7-0.5,2.6c0.1,0.4,0.1,0.8,0.3,1.1c0.5,0.8,1.7,0.9,2.5,0.6s1.5-1.1,2.2-1.8
				c0.7-0.7,1.4-1.3,2.3-1.5c0.6-0.1,1.2,0,1.8-0.1c0.6-0.1,1.2-0.4,1.9-0.5c0.7-0.1,1.5,0.3,1.5,0.9c0,0.3-0.1,0.6-0.2,0.8
				c-0.1,0.4-0.1,0.7-0.1,1.1c1-0.5,2-1,2.6-1.2c1.6-0.5,10-0.8,11.7-2.2c1.7-1.4-9.8-1.3-9.8-1.3s11.6-5.3,11.2-6.9
				C219.7,97.8,209.4,102.2,208.2,102.9z"/>
			<path class="st6" d="M194.6,121.4c0.3,0.2,0.6,0.2,0.9,0.2c0.8,0,1.6-0.5,2-1.2c0.5-0.9,0.5-2,0.5-3.1c0-1.2,0.3-2.3,0.9-3.3
				c0.2-0.4,0.5-0.7,0.7-1.1c0.2-0.4,0.2-0.9-0.1-1.2c-0.6,0.3-1.2,0.7-1.8,1c-0.8,0.5-1.8,1.1-1.9,2.1c0,0.5,0.2,1,0.4,1.5
				c0.2,0.5,0.3,1.1,0,1.5c-0.2,0.4-0.7,0.5-1.1,0.8c-0.5,0.3-0.9,0.8-1,1.3C193.9,120.5,194.1,121.2,194.6,121.4z"/>
		</g>
		<g>
			<path class="st7" d="M308.1,127.7c0,0-6.8-19-9.2-20.9c-2.4-1.9-5.2,0.1-7.7-2.6c-2.5-2.6-10.3-4.8-10.9-6.3
				c-0.5-1.5,1.6-1.8,3.8-1.1c2.2,0.7,4.2,1.8,4.5,1.1c0.3-0.7-1.8-5.7-4-8.9s-6.7-7.7-5.3-8.5c1.4-0.8,9.4,7.3,9.4,7.3
				s-7.6-7.7-7.2-8.7s2.2,0,4.1,1.7c1.9,1.7,5.2,5.3,5.2,5.3s-6.4-6.5-5.4-7.2c1-0.7,7,6.6,7,6.6s-3.8-4.2-2.8-4.5
				c1-0.3,7.2,8.1,9.6,10.6c2.4,2.5,5.7,8.9,6.7,10.6c1,1.7,12.9,19.4,12.9,19.4L308.1,127.7z"/>
			<path class="st8" d="M299.2,91.7c-2.4-2.5-8.6-10.9-9.6-10.6c-0.5,0.2,0.4,1.6,1.4,2.8c-1.8-2.1-4.9-5.5-5.6-5
				c-0.7,0.5,2.1,3.7,3.9,5.6c-1.1-1.2-2.7-2.7-3.7-3.7c-1.9-1.7-3.7-2.7-4.1-1.7c-0.3,0.8,5.8,7.2,7,8.4c-1.3-1.3-7.8-7.9-9.2-7.1
				c-1.4,0.8,3,5.3,5.3,8.5c2.2,3.2,4.3,8.2,4,8.9c-0.3,0.7-2.3-0.4-4.5-1.1c-2.2-0.7-4.3-0.4-3.8,1.1c0.5,1.5,8.3,3.7,10.9,6.3
				c1.9,2,4,1.3,5.9,1.7c-0.4-0.8-0.9-1.5-1.5-2.2c-0.6-0.6-1.4-1.2-1.8-2c-0.2-0.3-0.3-0.7-0.3-1.1c0.1-0.5,0.5-0.9,0.7-1.4
				c0.4-0.8,0.3-1.8-0.1-2.6c-0.4-0.8-0.9-1.6-1.3-2.4c-0.1-0.2-0.2-0.4-0.1-0.6c0-0.5,0.8-0.8,1.3-0.6c0.5,0.2,0.9,0.6,1.3,0.9
				c0.4,0.3,1.1,0.4,1.5,0.1c0.4-0.4,0.3-1.1,0.1-1.6c0.2-0.3,0.7-0.1,1,0.1c1,0.7,1.6,1.7,1.8,2.9c0.2,0.9,0,1.8,0.4,2.6
				c0.5,1.2,1.9,1.7,3.2,2.2c0.5,0.2,1.1,0.3,1.6,0.2C303.5,98,301.1,93.7,299.2,91.7z"/>
			<path class="st9" d="M303.5,114.3c0.2-0.6,0-1.2-0.2-1.8s-0.3-1.3,0.1-1.8c0.1-0.1,0.2-0.1,0.3-0.2c0.2,0,0.4,0.1,0.6,0.2
				c0.5,0.3,1.1,0.3,1.7,0.3c0.7,0,1.5-0.1,1.8-0.7c0.2-0.5-0.2-1-0.6-1.3c-0.5-0.2-1-0.3-1.5-0.3c-0.5,0-1.1,0-1.5-0.3
				c-0.4-0.3-0.7-0.7-1-1.2c-0.4-0.7-0.9-1.5-1.3-2.2c-0.3-0.5-0.6-1-1.1-1.3c-0.5-0.3-1.2-0.2-1.5,0.2c-0.3,0.5,0,1.2,0.1,1.8
				c0.1,0.4,0,0.8,0,1.2c1,1.2,2.4,4.2,3.8,7.6C303.3,114.7,303.4,114.6,303.5,114.3z"/>
		</g>
		<g>
			<path class="st4" d="M258.1,103.3c0.1,0.2-9.4-5.6-5.8-8.1c1.4-0.9,2.1,0.5,2.6,1.5C255.8,98.4,256.1,100.8,258.1,103.3z"/>
			<path class="st10" d="M252.5,95.4c0,0-1.1,0.2-0.7,1.8c0.4,1.6,3.1,3.5,3.1,3.5S251.6,97.4,252.5,95.4z"/>
		</g>
		<g>
			<path class="st3" d="M207.6,82.6c0,0-0.4-4.9,2.4-6.9c2.8-2.1,6.3,0.8,4.1,3.4C211.9,81.7,210.4,77.6,207.6,82.6z"/>
			<path class="st10" d="M209.3,76.7c0,0,3.3-3,5,0.1C214.3,76.8,212.6,75.3,209.3,76.7z"/>
		</g>
		<g>
			<path class="st9" d="M193,91.9c0,0-3.7-4.6-0.6-7.8c3.1-3.2,4.5,0.2,2.6,2.6C193,88.9,193,91.9,193,91.9z"/>
			<path class="st10" d="M194.3,83c0,0,2.1,0.4,0.3,3.4C194.6,86.4,195.4,84.1,194.3,83z"/>
		</g>
		<path class="st11" d="M225.3,87.7c0,0.9-0.7,1.6-1.6,1.6c-0.9,0-1.6-0.7-1.6-1.6c0-0.9,0.7-1.6,1.6-1.6
			C224.6,86.2,225.3,86.9,225.3,87.7z"/>
		<circle class="st11" cx="265.1" cy="71.6" r="1.1"/>
		<path class="st11" d="M202.3,88.4c0,0.6-0.5,1.1-1.1,1.1c-0.6,0-1.1-0.5-1.1-1.1c0-0.6,0.5-1.1,1.1-1.1
			C201.8,87.3,202.3,87.8,202.3,88.4z"/>
		<path class="st9" d="M281.1,93c0,0.7-0.5,1.2-1.2,1.2c-0.7,0-1.2-0.5-1.2-1.2c0-0.7,0.5-1.2,1.2-1.2
			C280.6,91.8,281.1,92.3,281.1,93z"/>
		<path class="st9" d="M263.5,87.3c0,0.7-0.5,1.2-1.2,1.2c-0.7,0-1.2-0.5-1.2-1.2s0.5-1.2,1.2-1.2C263,86.1,263.5,86.6,263.5,87.3z"
			/>
		<path class="st9" d="M219.5,82.3c0,0.7-0.5,1.2-1.2,1.2c-0.7,0-1.2-0.5-1.2-1.2c0-0.7,0.5-1.2,1.2-1.2
			C218.9,81.2,219.5,81.7,219.5,82.3z"/>
		<circle class="st3" cx="257.2" cy="81.5" r="2"/>
		<path class="st3" d="M284.9,105.9c0,0.9-0.7,1.6-1.6,1.6s-1.6-0.7-1.6-1.6c0-0.9,0.7-1.6,1.6-1.6S284.9,105.1,284.9,105.9z"/>
		<circle class="st3" cx="183.8" cy="106.4" r="1.4"/>
		<ellipse transform="matrix(0.2308 -0.973 0.973 0.2308 65.2115 307.4121)" class="st4" cx="227" cy="112.5" rx="2.4" ry="2.4"/>
		<path class="st4" d="M250.8,106.4c0,0.5-0.4,0.9-0.9,0.9c-0.5,0-0.9-0.4-0.9-0.9s0.4-0.9,0.9-0.9
			C250.4,105.5,250.8,105.9,250.8,106.4z"/>
		<path class="st4" d="M232.6,72.4c0,0.4-0.4,0.8-0.8,0.8c-0.4,0-0.8-0.4-0.8-0.8c0-0.4,0.4-0.8,0.8-0.8
			C232.3,71.6,232.6,72,232.6,72.4z"/>
	</g>
	<g style="clip-path:url(#Mask_00000041254387351407359780000014319985878370610312_);">
		<g>
			<path class="st3" d="M265.1,63.9c0,0-1-4.2,2.3-9.2c3.3-5.1,8.4,0.1,4.7,2.5C268.4,59.5,266.7,59,265.1,63.9z"/>
			<path class="st10" d="M272.4,53.6c0,0,1.6,2.5-2,3.6C270.4,57.1,272.4,55.5,272.4,53.6z"/>
		</g>
		<g>
			<path class="st6" d="M222.4,70.9c0,0.2-5-11.2,0-11c1.8,0,1.6,1.8,1.4,3.1C223.5,65,222.2,67.4,222.4,70.9z"/>
			<path class="st10" d="M222.4,60.3c0,0-1.1-0.5-1.8,1.2c-0.6,1.7,0.6,5.2,0.6,5.2S220.3,61.4,222.4,60.3z"/>
		</g>
		<g>
			<path class="st4" d="M280.5,75.7c0,0,5.7-4,5.4-9.1c-0.3-5-6.7-6.1-7.5-1.3C277.6,70.1,283.4,67.9,280.5,75.7z"/>
			<path class="st10" d="M285.5,68.3c0,0,0.2-6.4-4.8-5.3C280.6,63,283.9,63.5,285.5,68.3z"/>
		</g>
		<g>
			<path class="st8" d="M247.7,55.4c0,0,0.7-7-3.4-10c-4-3-9,1.1-5.9,4.8C241.6,54,243.7,48.2,247.7,55.4z"/>
			<path class="st10" d="M245.3,46.8c0,0-4.7-4.3-7.2,0.2C238.1,47,240.6,44.8,245.3,46.8z"/>
		</g>
		<path class="st11" d="M229.4,54.7c0,0.4-0.3,0.7-0.7,0.7c-0.4,0-0.7-0.3-0.7-0.7c0-0.4,0.3-0.7,0.7-0.7
			C229.2,54.1,229.4,54.4,229.4,54.7z"/>
		<path class="st11" d="M259.5,59c0,1-0.8,1.7-1.7,1.7c-1,0-1.7-0.8-1.7-1.7c0-1,0.8-1.7,1.7-1.7C258.7,57.3,259.5,58,259.5,59z"/>
		<circle class="st8" cx="239.8" cy="60.5" r="2.4"/>
		<path class="st3" d="M276.2,62.2c0,0.6-0.5,1.1-1.1,1.1c-0.6,0-1.1-0.5-1.1-1.1c0-0.6,0.5-1.1,1.1-1.1
			C275.7,61.1,276.2,61.6,276.2,62.2z"/>
		<path class="st4" d="M284.5,56c0,0.5-0.4,1-1,1s-1-0.4-1-1c0-0.5,0.4-1,1-1S284.5,55.5,284.5,56z"/>
		<circle class="st4" cx="249" cy="64.6" r="2.1"/>
	</g>
</g>
</svg>
