<svg width="421" height="120" xmlns="http://www.w3.org/2000/svg" xmlns:xlink="http://www.w3.org/1999/xlink"><defs><path id="aG" d="M0 119.415h89.946V0H0z"/><path id="a" d="M0 .015h104.985V105H0z"/><path id="e" d="M0 .016h1.779v1.811H0z"/><path id="g" d="M0 119.415h89.946V0H0z"/><path id="i" d="M0 119.415h89.946V0H0z"/><path id="k" d="M0 119.415h89.946V0H0z"/><path id="m" d="M0 119.415h89.946V0H0z"/><path id="o" d="M0 119.415h89.946V0H0z"/><path id="q" d="M0 119.415h89.946V0H0z"/><path id="s" d="M0 119.415h89.946V0H0z"/><path id="u" d="M0 119.415h89.946V0H0z"/><path id="w" d="M0 119.415h89.946V0H0z"/><path id="y" d="M0 119.415h89.946V0H0z"/><path id="A" d="M0 119.415h89.946V0H0z"/><path id="C" d="M0 119.415h89.946V0H0z"/><path id="E" d="M0 119.415h89.946V0H0z"/><path id="G" d="M0 119.415h89.946V0H0z"/><path id="I" d="M0 119.415h89.946V0H0z"/><path id="K" d="M0 119.415h89.946V0H0z"/><path id="M" d="M0 119.415h89.946V0H0z"/><path id="O" d="M0 119.415h89.946V0H0z"/><path id="Q" d="M0 119.415h89.946V0H0z"/><path id="S" d="M0 119.415h89.946V0H0z"/><path id="U" d="M0 119.415h89.946V0H0z"/><path id="W" d="M0 119.415h89.946V0H0z"/><path id="Y" d="M0 119.415h89.946V0H0z"/><path id="aa" d="M0 119.415h89.946V0H0z"/><path id="ac" d="M0 119.415h89.946V0H0z"/><path id="ae" d="M0 119.415h89.946V0H0z"/><path id="ag" d="M0 119.415h89.946V0H0z"/><path id="ai" d="M0 119.415h89.946V0H0z"/><path id="ak" d="M0 119.415h89.946V0H0z"/><path id="am" d="M0 119.415h89.946V0H0z"/><path id="ao" d="M0 119.415h89.946V0H0z"/><path id="aq" d="M0 119.415h89.946V0H0z"/><path id="as" d="M0 119.415h89.946V0H0z"/><path id="au" d="M0 119.415h89.946V0H0z"/><path id="aw" d="M0 119.415h89.946V0H0z"/><path id="ay" d="M0 119.415h89.946V0H0z"/><path id="aA" d="M0 119.415h89.946V0H0z"/><path id="aC" d="M0 119.415h89.946V0H0z"/><path id="aE" d="M0 119.415h89.946V0H0z"/><path id="c" d="M.01.014h26.655v26.631H.01z"/><path id="aI" d="M0 119.415h89.946V0H0z"/><path id="aK" d="M0 119.415h89.946V0H0z"/><path id="aM" d="M0 119.415h89.946V0H0z"/><path id="aO" d="M0 119.415h89.946V0H0z"/><path id="aQ" d="M0 119.415h89.946V0H0z"/><path id="aS" d="M0 119.415h89.946V0H0z"/><path id="aU" d="M0 119.415h89.946V0H0z"/><path id="aW" d="M0 119.415h89.946V0H0z"/><path id="aY" d="M0 119.415h89.946V0H0z"/><path id="ba" d="M0 119.415h89.946V0H0z"/><path id="bc" d="M0 119.415h89.946V0H0z"/><path id="be" d="M0 119.415h89.946V0H0z"/><path id="bg" d="M0 119.415h89.946V0H0z"/><path id="bi" d="M0 119.415h89.946V0H0z"/><path id="bk" d="M0 119.415h89.946V0H0z"/><path id="bm" d="M0 119.415h89.946V0H0z"/><path id="bo" d="M0 119.415h89.946V0H0z"/><path id="bq" d="M0 119.415h89.946V0H0z"/><path id="bs" d="M0 119.415h89.946V0H0z"/><path id="bu" d="M0 119.415h89.946V0H0z"/><path id="bw" d="M0 119.415h89.946V0H0z"/><path id="by" d="M0 119.415h89.946V0H0z"/><path id="bA" d="M0 119.415h89.946V0H0z"/><path id="bC" d="M0 119.415h89.946V0H0z"/><path id="bE" d="M0 119.415h89.946V0H0z"/><path id="bG" d="M0 119.415h89.946V0H0z"/><path id="bI" d="M0 119.415h89.946V0H0z"/><path id="bK" d="M0 119.415h89.946V0H0z"/><path id="bM" d="M0 119.415h89.946V0H0z"/><path id="bO" d="M0 119.415h89.946V0H0z"/><path id="bQ" d="M0 119.415h89.946V0H0z"/><path id="bS" d="M0 119.415h89.946V0H0z"/><path id="bU" d="M0 119.415h89.946V0H0z"/><path id="bW" d="M0 119.415h89.946V0H0z"/><path id="bY" d="M0 119.415h89.946V0H0z"/><path id="ca" d="M0 119.415h89.946V0H0z"/><path id="cc" d="M0 119.415h89.946V0H0z"/><path id="ce" d="M0 119.415h89.946V0H0z"/><path id="cg" d="M0 119.415h89.946V0H0z"/><path id="ci" d="M0 119.415h89.946V0H0z"/><path id="ck" d="M0 119.415h89.946V0H0z"/><path id="cm" d="M0 119.415h89.946V0H0z"/></defs><g fill="none" fill-rule="evenodd"><path d="M.5 0h420v120H.5z" fill="#7E56A7" fill-rule="nonzero"/><g opacity=".1"><g transform="translate(294 10)"><mask id="b" fill="#fff"><use xlink:href="#a"/></mask><path d="M97.557 56.65a3.899 3.899 0 1 1 0-7.797 3.899 3.899 0 0 1 0 7.798m1.812 10.245a3.898 3.898 0 1 1-2.607-4.858 3.897 3.897 0 0 1 2.607 4.858m-6.412 13.43a3.898 3.898 0 1 1-6.444-4.39 3.896 3.896 0 0 1 5.416-1.027 3.898 3.898 0 0 1 1.028 5.417m-7.624-52.4a3.899 3.899 0 1 1 6.222-4.702 3.899 3.899 0 0 1-6.222 4.701m8.704 6.933a3.9 3.9 0 0 1 2.454 7.402 3.898 3.898 0 0 1-4.926-2.474 3.898 3.898 0 0 1 2.472-4.928m-41.544 49.63c-17.645 0-31.948-14.303-31.948-31.948 0-17.643 14.303-31.947 31.948-31.947 17.643 0 31.947 14.304 31.947 31.947 0 17.645-14.304 31.949-31.947 31.949m29.51 7.342a3.898 3.898 0 1 1-4.7-6.22 3.9 3.9 0 0 1 4.7 6.221m-14.106 7.41a3.9 3.9 0 0 1-2.456-7.402 3.899 3.899 0 0 1 2.456 7.402m-15.42 2.49a3.9 3.9 0 1 1-.001-7.798 3.9 3.9 0 0 1 0 7.799M43.19 97.04a3.898 3.898 0 1 1-7.465-2.254 3.898 3.898 0 0 1 7.465 2.254m-12.87-4.833a3.898 3.898 0 1 1-6.444-4.389 3.898 3.898 0 0 1 6.444 4.389m-7.371-78.533a3.898 3.898 0 1 1 4.702 6.22 3.898 3.898 0 0 1-4.702-6.22M37.76 5.37a3.899 3.899 0 1 1 2.456 7.4 3.899 3.899 0 0 1-2.456-7.4m14.715-1.598a3.898 3.898 0 1 1 0 7.798 3.9 3.9 0 1 1 0-7.798m9.285 4.693a3.9 3.9 0 1 1 7.466 2.254 3.9 3.9 0 0 1-7.466-2.254m12.87 4.833a3.9 3.9 0 1 1 6.446 4.391 3.9 3.9 0 0 1-6.445-4.391M18.858 83.04a3.899 3.899 0 1 1-4.702-6.221 3.899 3.899 0 0 1 4.702 6.22m-7.944-12.393a3.9 3.9 0 1 1-2.453-7.401 3.9 3.9 0 0 1 2.453 7.4M3.495 52.753a3.898 3.898 0 1 1 7.797 0 3.898 3.898 0 0 1-7.797 0m2.087-14.144a3.9 3.9 0 1 1 7.467 2.253 3.9 3.9 0 0 1-7.467-2.253m6.412-14a3.9 3.9 0 1 1 6.445 4.39 3.9 3.9 0 0 1-6.445-4.39m92.99 27.9c0-3.64-2.715-6.639-6.23-7.099 3.215-1.493 4.907-5.167 3.816-8.64-1.132-3.6-4.844-5.67-8.46-4.824l-.204-.41c2.844-2.387 3.415-6.598 1.211-9.663-2.206-3.071-6.39-3.869-9.561-1.92a46.852 46.852 0 0 0-.935-.925 7.161 7.161 0 0 0-2.044-9.535c-3.098-2.167-7.307-1.538-9.656 1.348-.124-.06-.248-.123-.373-.183.81-3.632-1.305-7.324-4.924-8.414-3.202-.963-6.545.426-8.195 3.165C58.638 2.31 55.837.015 52.493.015c-3.64 0-6.64 2.716-7.1 6.231-1.491-3.215-5.167-4.907-8.64-3.816-3.606 1.134-5.675 4.855-4.82 8.475-.242.12-.484.24-.724.365-2.408-2.837-6.63-3.379-9.682-1.148-3.052 2.23-3.819 6.416-1.848 9.573a47.64 47.64 0 0 0-.667.683c-3.197-1.906-7.368-1.053-9.535 2.044-2.164 3.094-1.54 7.297 1.336 9.648-.062.126-.126.251-.187.378a7.163 7.163 0 0 0-8.397 4.927c-.965 3.203.424 6.546 3.163 8.197C2.294 46.362 0 49.164 0 52.508c0 3.64 2.717 6.64 6.232 7.098-3.216 1.492-4.908 5.167-3.817 8.64a7.163 7.163 0 0 0 8.431 4.833l.21.42c-2.825 2.392-3.386 6.587-1.189 9.644 2.198 3.058 6.355 3.863 9.522 1.947.312.317.628.63.949.939a7.163 7.163 0 0 0 2.07 9.494 7.162 7.162 0 0 0 9.619-1.3l.396.195a7.163 7.163 0 0 0 4.938 8.354c3.201.964 6.545-.425 8.195-3.165.79 3.1 3.592 5.393 6.937 5.393 3.64 0 6.639-2.716 7.098-6.231 1.492 3.215 5.167 4.907 8.64 3.816 3.587-1.126 5.654-4.814 4.836-8.417.25-.124.5-.248.747-.376a7.162 7.162 0 0 0 9.643 1.102 7.163 7.163 0 0 0 1.874-9.534c.23-.23.457-.463.682-.698 3.191 1.875 7.338 1.016 9.496-2.07a7.164 7.164 0 0 0-1.314-9.628c.064-.13.129-.26.19-.39a7.163 7.163 0 0 0 8.372-4.934c.964-3.203-.426-6.546-3.164-8.196 3.098-.791 5.392-3.592 5.392-6.936" fill="#FEFEFE" fill-rule="nonzero" mask="url(#b)"/></g><path d="M346 73.408c-5.748 0-10.408-4.66-10.408-10.409 0-5.748 4.66-10.408 10.408-10.408 5.748 0 10.408 4.66 10.408 10.408 0 5.749-4.66 10.409-10.408 10.409M346 42c-11.599 0-21 9.402-21 21s9.401 21 21 21c11.598 0 21-9.402 21-21s-9.402-21-21-21" fill="#FEFEFE" fill-rule="nonzero"/><path d="M346.5 88.5c-14.337 0-26-11.663-26-26 0-14.336 11.663-26 26-26 14.336 0 26 11.664 26 26 0 14.337-11.664 26-26 26m0-53.5C331.336 35 319 47.337 319 62.5c0 15.164 12.336 27.5 27.5 27.5S374 77.664 374 62.5c0-15.163-12.336-27.5-27.5-27.5" fill="#FEFEFE" fill-rule="nonzero"/></g><g opacity=".101"><g transform="translate(393)"><mask id="d" fill="#fff"><use xlink:href="#c"/></mask><path d="M.278.014A23.288 23.288 0 0 0 .01 3.537c0 12.762 10.345 23.108 23.108 23.108 1.205 0 2.39-.093 3.546-.271v-4.698a18.498 18.498 0 0 1-3.546.345c-10.192 0-18.484-8.292-18.484-18.484 0-1.205.12-2.382.34-3.523H.279Z" fill="#FEFEFE" fill-rule="nonzero" mask="url(#d)"/></g><path d="M398.352 0A17.523 17.523 0 0 0 398 3.5c0 9.65 7.842 17.5 17.48 17.5 1.206 0 2.383-.123 3.52-.356V13.85a10.864 10.864 0 0 1-3.52.585c-6.023 0-10.923-4.905-10.923-10.936 0-1.224.205-2.4.577-3.5h-6.782Z" fill="#FEFEFE" fill-rule="nonzero"/><path d="M406.647 0A10.349 10.349 0 0 0 406 3.611C406 9.34 410.653 14 416.371 14c1.277 0 2.499-.234 3.629-.658V9.896a7.204 7.204 0 0 1-3.629.977c-4.004 0-7.25-3.252-7.25-7.262 0-1.315.351-2.547.96-3.611h-3.434Z" fill="#FEFEFE" fill-rule="nonzero"/><g transform="translate(382 2)"><mask id="f" fill="#fff"><use xlink:href="#e"/></mask><path d="M1.778.943v-.04A.889.889 0 0 0 .005.867 2.066 2.066 0 0 0 0 .949c-.012.487.37.86.857.878.488.019.9-.396.92-.884" fill="#FEFEFE" fill-rule="nonzero" mask="url(#f)"/></g><path d="M384 4.49v-.015a.496.496 0 0 0-.515-.475.49.49 0 0 0-.485.505l.002.046c.012.269.243.459.517.449.27-.01.481-.246.481-.51M383.002.033c-.023.479.173.875.442.928.272.055.52-.328.552-.811.002-.037.004-.072.004-.108V.033h-.998ZM384 7.491l-.003-.052a.497.497 0 0 0-.55-.436.492.492 0 0 0-.444.538l.005.045c.032.268.276.44.55.41a.509.509 0 0 0 .442-.505M419 36.503v-.041a.51.51 0 0 0-.546-.46.497.497 0 0 0-.453.534c.02.276.255.483.525.463l.04-.003c.256-.02.434-.236.434-.493M384 10.039c0-.057-.003-.114-.007-.17l-.01-.09c-.051-.522-.312-.863-.581-.761-.27.101-.445.606-.393 1.127l.495-.107-.49.17c.05.523.307.87.577.777.24-.084.409-.49.409-.946M402.909 33.717a.31.31 0 0 0 .091-.208c0-.185-.206-.362-.556-.446l-.07-.017c-.483-.115-1.058-.008-1.283.237-.226.247-.017.539.465.654l.07.017c.483.114 1.057.008 1.283-.237M414.998 36.538a.385.385 0 0 0 .002-.037c0-.259-.385-.477-.89-.497l-.093-.003c-.529-.017-.986.193-1.016.468-.027.277.374.511.904.528l.134-.495-.071.497c.53.02.991-.186 1.03-.461M409.976 35.613a.278.278 0 0 0 .024-.11c0-.226-.31-.431-.765-.482l-.085-.01c-.527-.056-1.013.116-1.128.383-.117.264.247.532.772.592l.014.002c.527.06 1.05-.108 1.168-.375M417 36.5c0-.276-.24-.5-.51-.5a.495.495 0 0 0-.49.5c0 .277.22.5.49.5h.04c.27 0 .47-.223.47-.5M404.97 34.675c.021-.054.03-.11.03-.164a.517.517 0 0 0-.332-.477.49.49 0 0 0-.635.28.495.495 0 0 0 .279.639l.043.016c.254.096.52-.04.616-.294M406.98 35.641a.456.456 0 0 0 .02-.131.521.521 0 0 0-.368-.489.49.49 0 0 0-.61.331.498.498 0 0 0 .332.618l.034.01a.477.477 0 0 0 .593-.339M411.99 36.576a.282.282 0 0 0 .01-.074c0-.242-.343-.454-.82-.491l-.092-.007c-.527-.035-1.01.156-1.08.428-.07.271.302.522.827.558l.203-.487-.142.492c.524.04 1.014-.147 1.093-.419M385 12.039a1.907 1.907 0 0 0-.027-.33c-.072-.512-.345-.814-.608-.675-.264.141-.42.67-.347 1.183l.487-.18-.48.24c.07.515.339.825.603.692.224-.112.372-.502.372-.93M390 22.505a.504.504 0 0 0-.787-.417.484.484 0 0 0-.095.72c.16.217.457.251.68.096a.48.48 0 0 0 .202-.4M389 20.503a.51.51 0 0 0-.074-.267.505.505 0 0 0-.686-.166.484.484 0 0 0-.168.672c0 .002.022.037.024.039.144.228.44.283.673.142.151-.09.231-.254.231-.42M387 19.033a1.738 1.738 0 0 0-.075-.515c-.126-.473-.422-.655-.662-.407-.24.248-.333.832-.206 1.303l.452-.38-.437.443c.125.473.421.66.662.415.169-.172.266-.509.266-.859M385 14.496a.502.502 0 0 0-.66-.47.488.488 0 0 0-.314.62l.014.04c.09.255.367.373.628.286a.5.5 0 0 0 .332-.476M386 16.498a.502.502 0 0 0-.69-.46.486.486 0 0 0-.272.639l.02.044c.11.246.392.342.644.237a.496.496 0 0 0 .298-.46M391 24.508a.502.502 0 0 0-.816-.398.483.483 0 0 0-.041.726.486.486 0 0 0 .684.045.476.476 0 0 0 .173-.373M400.942 32.74a.47.47 0 0 0 .058-.228.514.514 0 0 0-.264-.446.49.49 0 1 0-.49.851l.043.024c.238.13.523.037.653-.201M398.838 31.782c.11-.083.162-.178.162-.27 0-.159-.15-.314-.43-.408l-.075-.025c-.449-.147-1.047-.083-1.339.144-.291.226-.163.53.285.677l.055.018c.444.15 1.045.089 1.342-.136M396.795 30.623a.978.978 0 0 0-.17-1.369 2.661 2.661 0 0 0-.07-.055.964.964 0 0 0-1.358.187.98.98 0 0 0 .186 1.367l.648-.73-.596.771a.965.965 0 0 0 1.36-.17M395 28.512a.52.52 0 0 0-.169-.383.5.5 0 0 0-.7.03.487.487 0 0 0 .066.724c.204.178.5.147.682-.052a.468.468 0 0 0 .121-.319M393 26.028a.968.968 0 0 0-.271-.673 2.955 2.955 0 0 0-.061-.063.974.974 0 0 0-1.39 1.36l.75-.624-.704.673c.372.387.988.4 1.377.029a.97.97 0 0 0 .299-.702M418.492 30a.496.496 0 0 0-.492.5c0 .276.22.5.492.5h.032c.272 0 .476-.224.476-.5a.51.51 0 0 0-.508-.5M419.322 30.595c.04.17.177.313.367.405v-1c-.267.13-.421.357-.367.595M408.98 29.643a.468.468 0 0 0 .02-.135.517.517 0 0 0-.362-.486.496.496 0 1 0-.254.958.478.478 0 0 0 .596-.337M400.921 26.773a.469.469 0 0 0 .079-.262.516.516 0 0 0-.227-.425.496.496 0 0 0-.687.13.49.49 0 0 0 .168.708.483.483 0 0 0 .667-.15M402.94 27.743a.468.468 0 0 0 .06-.232.518.518 0 0 0-.26-.446.495.495 0 0 0-.675.183.492.492 0 0 0 .217.69c.237.134.523.042.657-.195M397 22.508a.502.502 0 0 0-.845-.373.486.486 0 0 0-.018.695c.002 0 .025.027.027.028.191.193.493.186.69-.001a.477.477 0 0 0 .146-.349M404.956 28.709a.468.468 0 0 0 .044-.198.518.518 0 0 0-.296-.464.493.493 0 1 0-.387.909.48.48 0 0 0 .64-.247M399.795 25.81c.138-.089.205-.195.205-.3 0-.146-.13-.29-.376-.387l-.062-.024c-.43-.163-1.04-.12-1.365.095-.324.217-.239.523.19.687l.04.016c.425.166 1.037.127 1.368-.086M398 24.508a.5.5 0 0 0-.845-.373.487.487 0 0 0-.018.695l.028.028a.488.488 0 0 0 .689-.001.477.477 0 0 0 .146-.349M406.969 29.677a.47.47 0 0 0 .031-.168.518.518 0 0 0-.328-.475.494.494 0 1 0-.322.935.478.478 0 0 0 .619-.292M417 31.5a.51.51 0 0 0-.508-.5.496.496 0 0 0-.492.5c0 .276.22.5.492.5h.033c.272 0 .475-.224.475-.5M414.999 30.535l.001-.033a.513.513 0 0 0-.473-.5.494.494 0 0 0-.525.461.496.496 0 0 0 .488.536c.27.02.49-.189.509-.464M412.989 30.61a.482.482 0 0 0 .011-.104.516.516 0 0 0-.394-.493.496.496 0 0 0-.227.966l.042.01a.479.479 0 0 0 .568-.38M410.989 30.61a.473.473 0 0 0 .011-.103.516.516 0 0 0-.394-.494.492.492 0 0 0-.592.37.495.495 0 0 0 .408.606.478.478 0 0 0 .567-.38M390 9.033c0-.057-.002-.114-.007-.172l-.008-.08c-.053-.524-.314-.865-.583-.763-.27.103-.446.614-.393 1.137l.005.047c.048.526.306.876.577.783.24-.084.409-.492.409-.952M389 6.51a.572.572 0 0 0-.007-.093.485.485 0 0 0-.552-.413.504.504 0 0 0-.438.554v.003c.03.27.276.465.55.436A.493.493 0 0 0 389 6.51" fill="#FEFEFE" fill-rule="nonzero"/><path d="M390 10.495a.495.495 0 0 0-.624-.48.49.49 0 0 0-.35.638c.072.26.34.398.606.33a.503.503 0 0 0 .368-.488M388.216 0a.548.548 0 0 0-.21.383l-.004.037a.52.52 0 0 0 .445.577c.274.032.52-.201.55-.499a.554.554 0 0 0-.208-.498h-.573ZM389 4.51V4.49a.495.495 0 0 0-.482-.49.496.496 0 0 0-.517.473v.033c-.014.273.206.483.48.493.277.01.508-.22.519-.49M389 2.509V2.49a.495.495 0 0 0-.482-.49.496.496 0 0 0-.517.473v.034c-.013.272.206.482.481.492a.51.51 0 0 0 .518-.491M396 21.024c0-.217-.036-.435-.11-.617l-.03-.068c-.176-.408-.485-.454-.69-.103-.205.35-.228.966-.052 1.375l.013.03c.171.418.48.48.69.138.118-.193.179-.472.179-.755M393 17.502a.503.503 0 0 0-.755-.433.486.486 0 0 0-.175.672l.023.038c.145.228.44.285.673.145a.487.487 0 0 0 .234-.422M394 19.504a.503.503 0 0 0-.792-.412.486.486 0 0 0-.115.685l.02.027a.49.49 0 0 0 .685.1.486.486 0 0 0 .202-.4M392 16.5a.503.503 0 0 0-.056-.232.504.504 0 0 0-.671-.215.487.487 0 0 0-.201.693c.127.24.42.32.663.196A.492.492 0 0 0 392 16.5M391 12.495a.493.493 0 0 0-.661-.468.494.494 0 0 0-.302.657.49.49 0 0 0 .63.287.501.501 0 0 0 .333-.476" fill="#FEFEFE" fill-rule="nonzero"/><path d="M391 14.03a1.827 1.827 0 0 0-.055-.452c-.11-.49-.402-.711-.65-.495-.25.217-.363.79-.253 1.28l.01.045c.106.494.395.723.647.515.187-.156.301-.515.301-.893" fill="#FEFEFE" fill-rule="nonzero"/><path d="M385.208 0A31.617 31.617 0 0 0 385 3.604C385 20.915 399.075 35 416.375 35c1.226 0 2.436-.073 3.625-.21v-.899a30.58 30.58 0 0 1-3.625.217c-16.808 0-30.483-13.684-30.483-30.504 0-1.22.073-2.422.213-3.604h-.897Z" fill="#FEFEFE" fill-rule="nonzero"/></g><path d="M342 54c0 11.046-8.954 20-20 20s-20-8.954-20-20c0-11.045 8.954-20 20-20s20 8.955 20 20" fill="#FBB330" fill-rule="nonzero"/><path d="M321.5 65.686c-6.73 0-12.186-5.456-12.186-12.186 0-6.73 5.456-12.186 12.186-12.186 6.73 0 12.186 5.456 12.186 12.186 0 6.73-5.456 12.186-12.186 12.186m0-27.686c-8.56 0-15.5 6.94-15.5 15.5 0 8.56 6.94 15.5 15.5 15.5 8.56 0 15.5-6.94 15.5-15.5 0-8.56-6.94-15.5-15.5-15.5" fill="#FB8B30" fill-rule="nonzero"/><path d="M321.5 64.114c-5.862 0-10.614-4.752-10.614-10.614 0-5.861 4.752-10.614 10.614-10.614 5.862 0 10.614 4.753 10.614 10.614 0 5.862-4.752 10.614-10.614 10.614m0-24.114c-7.456 0-13.5 6.044-13.5 13.5S314.044 67 321.5 67 335 60.956 335 53.5 328.956 40 321.5 40M323 37.5a1.5 1.5 0 1 1-3 0 1.5 1.5 0 0 1 3 0M323 69.5a1.5 1.5 0 1 1-3 0 1.5 1.5 0 0 1 3 0M305.5 52a1.5 1.5 0 1 1 0 3 1.5 1.5 0 0 1 0-3M337.5 52a1.5 1.5 0 1 1 0 3 1.5 1.5 0 0 1 0-3" fill="#64013F" fill-rule="nonzero"/><path d="M306.933 48.064a1.5 1.5 0 1 1-.865 2.871 1.5 1.5 0 0 1 .865-2.87M336.933 57.064a1.5 1.5 0 1 1-.865 2.871 1.5 1.5 0 0 1 .865-2.87M309.344 43.26a1.5 1.5 0 1 1-1.688 2.48 1.5 1.5 0 0 1 1.688-2.48M335.345 61.26a1.5 1.5 0 1 1-1.69 2.48 1.5 1.5 0 0 1 1.69-2.48M313.697 39.596a1.5 1.5 0 1 1-2.395 1.808 1.5 1.5 0 0 1 2.395-1.808M332.697 65.596a1.5 1.5 0 1 1-2.394 1.808 1.5 1.5 0 0 1 2.394-1.808M317.923 38.028a1.499 1.499 0 1 1-2.845.945 1.499 1.499 0 0 1 2.845-.945M327.923 68.028a1.5 1.5 0 1 1-2.846.944 1.5 1.5 0 0 1 2.846-.944M327.936 38.933a1.5 1.5 0 1 1-2.871-.865 1.5 1.5 0 0 1 2.87.865M318.936 68.933a1.5 1.5 0 1 1-2.872-.866 1.5 1.5 0 0 1 2.872.866M331.729 41.36a1.5 1.5 0 1 1-2.458-1.72 1.5 1.5 0 0 1 2.458 1.72M313.74 67.344a1.5 1.5 0 1 1-2.48-1.688 1.5 1.5 0 0 1 2.48 1.688M335.373 45.72a1.5 1.5 0 1 1-1.746-2.44 1.5 1.5 0 0 1 1.746 2.44M309.389 63.708a1.5 1.5 0 1 1-1.778-2.417 1.5 1.5 0 0 1 1.778 2.417M336.965 49.926a1.5 1.5 0 1 1-.93-2.852 1.5 1.5 0 0 1 .93 2.852M306.928 59.937a1.5 1.5 0 1 1-.857-2.874 1.5 1.5 0 0 1 .857 2.874" fill="#64013F" fill-rule="nonzero"/><path d="M330 53.5c0 4.142-3.582 7.5-8 7.5s-8-3.358-8-7.5c0-4.142 3.582-7.5 8-7.5s8 3.358 8 7.5" fill="#7A449A" fill-rule="nonzero"/><path d="M323 46a1 1 0 1 1-2 0 1 1 0 0 1 2 0M323 61a1 1 0 1 1-2 0 1 1 0 0 1 2 0M314 53a1 1 0 1 1 0 2 1 1 0 0 1 0-2M329 53a1 1 0 1 1 0 2 1 1 0 0 1 0-2M314.288 50.043a1 1 0 1 1-.576 1.915 1 1 0 0 1 .576-1.915" fill="#7A449A" fill-rule="nonzero"/><path d="M329.288 55.043a1 1 0 1 1-.576 1.914 1 1 0 0 1 .576-1.914M315.573 48.18a1 1 0 1 1-1.147 1.64 1 1 0 0 1 1.147-1.64M328.573 57.18a1 1 0 1 1-1.146 1.64 1 1 0 0 1 1.146-1.64M317.807 47.41a1 1 0 1 1-1.614 1.18 1 1 0 0 1 1.614-1.18M326.807 59.41a1 1 0 1 1-1.614 1.18 1 1 0 0 1 1.614-1.18M319.954 45.7a1 1 0 1 1-1.908.6 1 1 0 0 1 1.908-.6M324.954 60.7a1 1 0 1 1-1.907.6 1 1 0 0 1 1.907-.6M324.957 46.288a1 1 0 1 1-1.914-.575 1 1 0 0 1 1.914.575M319.957 61.288a1 1 0 1 1-1.914-.576 1 1 0 0 1 1.914.576M326.82 47.573a1 1 0 1 1-1.64-1.146 1 1 0 0 1 1.64 1.146M317.82 60.573a1 1 0 1 1-1.64-1.146 1 1 0 0 1 1.64 1.146M328.583 49.812a1 1 0 1 1-1.167-1.624 1 1 0 0 1 1.167 1.624M315.583 58.812a1 1 0 1 1-1.167-1.623 1 1 0 0 1 1.167 1.623M329.3 51.954a1 1 0 1 1-.6-1.908 1 1 0 0 1 .6 1.908M314.3 56.954a1 1 0 1 1-.6-1.908 1 1 0 0 1 .6 1.908" fill="#7A449A" fill-rule="nonzero"/><path d="M322 46.5a.5.5 0 1 1-1 0 .5.5 0 0 1 1 0M322 61.5a.5.5 0 1 1-1 0 .5.5 0 0 1 1 0M314.5 53a.5.5 0 1 1 0 1 .5.5 0 0 1 0-1M329.5 53a.5.5 0 1 1 0 1 .5.5 0 0 1 0-1M314.644 51.021a.5.5 0 1 1-.288.957.5.5 0 0 1 .288-.957M328.644 55.022a.5.5 0 1 1-.288.956.5.5 0 0 1 .288-.956M315.781 49.087a.5.5 0 1 1-.563.826.5.5 0 0 1 .563-.826M327.782 57.087a.5.5 0 1 1-.563.826.5.5 0 0 1 .563-.826M317.899 47.198a.5.5 0 1 1-.798.603.5.5 0 0 1 .798-.603M326.899 59.199a.5.5 0 1 1-.798.602.5.5 0 0 1 .798-.602M319.974 46.343a.5.5 0 1 1-.948.314.5.5 0 0 1 .948-.314M323.974 60.343a.5.5 0 1 1-.948.315.5.5 0 0 1 .948-.315M323.979 46.644a.5.5 0 1 1-.957-.287.5.5 0 0 1 .957.287M319.979 60.644a.5.5 0 1 1-.958-.289.5.5 0 0 1 .958.29M325.913 47.781a.5.5 0 1 1-.826-.562.5.5 0 0 1 .826.562M317.913 59.782a.5.5 0 1 1-.826-.564.5.5 0 0 1 .826.564M327.802 49.899a.5.5 0 1 1-.603-.799.5.5 0 0 1 .603.799M315.801 58.899a.5.5 0 1 1-.602-.797.5.5 0 0 1 .602.797M328.657 51.974a.5.5 0 1 1-.315-.948.5.5 0 0 1 .315.948M314.657 56.974a.5.5 0 1 1-.314-.948.5.5 0 0 1 .314.948" fill="#4C002D" fill-rule="nonzero"/><path d="M327 53.5a5.5 5.5 0 1 1-11 0 5.5 5.5 0 0 1 11 0" fill="#FBB330" fill-rule="nonzero"/><path d="M325 53.5a3.5 3.5 0 1 1-7 0 3.5 3.5 0 0 1 7 0" fill="#EE4350" fill-rule="nonzero"/><path d="M324 54a2 2 0 1 1-4 0 2 2 0 0 1 4 0" fill="#4C002D" fill-rule="nonzero"/><path d="M322 58.44a4.44 4.44 0 1 1 0-8.88 4.44 4.44 0 0 1 0 8.88M322 48a6 6 0 1 0 0 12 6 6 0 0 0 0-12" fill="#FB8B30" fill-rule="nonzero"/><g transform="translate(302)"><mask id="h" fill="#fff"><use xlink:href="#g"/></mask><path fill="#FBB330" fill-rule="nonzero" mask="url(#h)" d="M19.696 28.797h.905V0h-.905z"/></g><g transform="translate(302)"><mask id="j" fill="#fff"><use xlink:href="#i"/></mask><path d="M20.157 28.908a1.97 1.97 0 0 0-1.969 1.964 1.97 1.97 0 0 0 3.939 0 1.97 1.97 0 0 0-1.97-1.964m0 4.832a2.874 2.874 0 0 1-2.873-2.868 2.873 2.873 0 0 1 5.747 0 2.874 2.874 0 0 1-2.874 2.868" fill="#FBB330" fill-rule="nonzero" mask="url(#j)"/></g><g transform="translate(302)"><mask id="l" fill="#fff"><use xlink:href="#k"/></mask><path d="M20.172 25.641s1.82-7.35 4.633-4.435c2.708 2.807-4.633 4.435-4.633 4.435" fill="#EE4350" fill-rule="nonzero" mask="url(#l)"/></g><g transform="translate(302)"><mask id="n" fill="#fff"><use xlink:href="#m"/></mask><path d="M24.706 22.417c0 .665-.54 1.203-1.206 1.203a1.205 1.205 0 1 1 0-2.407c.666 0 1.206.539 1.206 1.204" fill="#64013F" fill-rule="nonzero" mask="url(#n)"/></g><g transform="translate(302)"><mask id="p" fill="#fff"><use xlink:href="#o"/></mask><path d="M23.895 21.75c.294.295-.332.151-.627.445-.295.294-.146.914-.44.62a.752.752 0 0 1 0-1.064.756.756 0 0 1 1.067 0" fill="#FDF8FA" fill-rule="nonzero" opacity=".084" mask="url(#p)"/></g><g transform="translate(302)"><mask id="r" fill="#fff"><use xlink:href="#q"/></mask><path d="M24.163 21.411c.114.19.18.41.18.644 0 .692-.578 1.27-1.27 1.27-.16 0-.313-.032-.455-.087a1.205 1.205 0 0 0 2.088-.822c0-.42-.216-.79-.543-1.005" fill="#4F0232" fill-rule="nonzero" mask="url(#r)"/></g><g transform="translate(302)"><mask id="t" fill="#fff"><use xlink:href="#s"/></mask><path d="M20.142 25.614s-1.82-7.35-4.632-4.435c-2.708 2.807 4.632 4.435 4.632 4.435" fill="#EE4350" fill-rule="nonzero" mask="url(#t)"/></g><g transform="translate(302)"><mask id="v" fill="#fff"><use xlink:href="#u"/></mask><path d="M15.609 22.39c0 .664.54 1.203 1.206 1.203.667 0 1.207-.539 1.207-1.204 0-.664-.54-1.203-1.207-1.203-.666 0-1.206.539-1.206 1.203" fill="#64013F" fill-rule="nonzero" mask="url(#v)"/></g><g transform="translate(302)"><mask id="x" fill="#fff"><use xlink:href="#w"/></mask><path d="M16.42 21.724c-.294.294.333.15.627.444.295.294.146.914.44.62a.752.752 0 0 0 0-1.064.755.755 0 0 0-1.066 0" fill="#FDF8FA" fill-rule="nonzero" opacity=".084" mask="url(#x)"/></g><g transform="translate(302)"><mask id="z" fill="#fff"><use xlink:href="#y"/></mask><path d="M16.152 21.384c-.114.19-.18.41-.18.644 0 .692.578 1.269 1.271 1.269.16 0 .312-.031.454-.086a1.205 1.205 0 1 1-1.545-1.827" fill="#4F0232" fill-rule="nonzero" mask="url(#z)"/></g><g transform="translate(302)"><mask id="B" fill="#fff"><use xlink:href="#A"/></mask><path d="M20.163 25.684s-5.57-8.819.012-8.819c5.376 0-.012 8.819-.012 8.819" fill="#FBB330" fill-rule="nonzero" mask="url(#B)"/></g><g transform="translate(302)"><mask id="D" fill="#fff"><use xlink:href="#C"/></mask><path d="M21.578 19.57c0 .836-.679 1.514-1.517 1.514a1.516 1.516 0 0 1-1.517-1.514c0-.836.68-1.514 1.517-1.514.838 0 1.517.678 1.517 1.514" fill="#EE4350" fill-rule="nonzero" mask="url(#D)"/></g><g transform="translate(302)"><mask id="F" fill="#fff"><use xlink:href="#E"/></mask><path d="M20.558 18.733c.37.37-.418.189-.788.559-.37.37-.183 1.15-.554.78a.945.945 0 0 1 0-1.339.95.95 0 0 1 1.342 0" fill="#FDF8FA" fill-rule="nonzero" opacity=".084" mask="url(#F)"/></g><g transform="translate(302)"><mask id="H" fill="#fff"><use xlink:href="#G"/></mask><path d="M21.123 19.116c0 .87-.728 1.596-1.6 1.596-.2 0-.392-.039-.57-.108a1.516 1.516 0 0 0 2.626-1.033 1.51 1.51 0 0 0-.684-1.265c.144.239.228.516.228.81Z" fill="#DA3340" fill-rule="nonzero" mask="url(#H)"/></g><g transform="translate(302)"><mask id="J" fill="#fff"><use xlink:href="#I"/></mask><path d="M22.16 27.285a2 2 0 0 0-2.002-1.997 2 2 0 0 0-2.003 1.997 2 2 0 0 0 2.003 1.998 2 2 0 0 0 2.002-1.998" fill="#64013F" fill-rule="nonzero" mask="url(#J)"/></g><g transform="translate(302)"><mask id="L" fill="#fff"><use xlink:href="#K"/></mask><path d="M20.813 28.39c.489-.488-.551-.25-1.04-.737-.489-.488-.242-1.517-.73-1.03a1.247 1.247 0 0 0 0 1.767 1.254 1.254 0 0 0 1.77 0" fill="#FDF8FA" fill-rule="nonzero" opacity=".085" mask="url(#L)"/></g><g transform="translate(302)"><mask id="N" fill="#fff"><use xlink:href="#M"/></mask><path d="M21.258 28.953c.19-.314.3-.68.3-1.069 0-1.147-.96-2.105-2.11-2.105-.264 0-.518.051-.754.143.366-.39.886-.634 1.464-.634a2 2 0 0 1 2.002 1.997c0 .698-.359 1.311-.902 1.668" fill="#C7778E" fill-rule="nonzero" mask="url(#N)"/></g><g transform="translate(302)"><mask id="P" fill="#fff"><use xlink:href="#O"/></mask><path fill="#FBB330" fill-rule="nonzero" mask="url(#P)" d="M19.659 103.275h.904v-24.88h-.904z"/></g><g transform="translate(302)"><mask id="R" fill="#fff"><use xlink:href="#Q"/></mask><path d="M20.102 78.285a1.97 1.97 0 0 0 1.97-1.965 1.97 1.97 0 0 0-3.94 0 1.97 1.97 0 0 0 1.97 1.965m0-4.832a2.874 2.874 0 0 1 2.874 2.867 2.874 2.874 0 0 1-5.747 0 2.874 2.874 0 0 1 2.873-2.867" fill="#FBB330" fill-rule="nonzero" mask="url(#R)"/></g><g transform="translate(302)"><mask id="T" fill="#fff"><use xlink:href="#S"/></mask><path d="M20.087 81.551s-1.82 7.35-4.632 4.436c-2.708-2.808 4.632-4.436 4.632-4.436" fill="#EE4350" fill-rule="nonzero" mask="url(#T)"/></g><g transform="translate(302)"><mask id="V" fill="#fff"><use xlink:href="#U"/></mask><path d="M15.553 84.776c0-.665.54-1.204 1.207-1.204a1.205 1.205 0 1 1 0 2.408c-.666 0-1.207-.54-1.207-1.204" fill="#64013F" fill-rule="nonzero" mask="url(#V)"/></g><g transform="translate(302)"><mask id="X" fill="#fff"><use xlink:href="#W"/></mask><path d="M16.365 85.442c-.295-.295.332-.15.627-.445.294-.294.145-.914.44-.62a.752.752 0 0 1 0 1.065.756.756 0 0 1-1.067 0" fill="#FDF8FA" fill-rule="nonzero" opacity=".137" mask="url(#X)"/></g><g transform="translate(302)"><mask id="Z" fill="#fff"><use xlink:href="#Y"/></mask><path d="M16.097 85.78c-.115-.189-.181-.41-.181-.643 0-.692.578-1.269 1.271-1.269.16 0 .313.03.455.086a1.205 1.205 0 0 0-2.088.822c0 .42.215.79.543 1.005" fill="#4A012F" fill-rule="nonzero" mask="url(#Z)"/></g><g transform="translate(302)"><mask id="ab" fill="#fff"><use xlink:href="#aa"/></mask><path d="M20.117 81.578s1.82 7.35 4.633 4.436c2.707-2.807-4.633-4.436-4.633-4.436" fill="#EE4350" fill-rule="nonzero" mask="url(#ab)"/></g><g transform="translate(302)"><mask id="ad" fill="#fff"><use xlink:href="#ac"/></mask><path d="M24.65 84.803a1.205 1.205 0 0 0-2.413 0c0 .665.54 1.204 1.207 1.204.666 0 1.207-.54 1.207-1.204" fill="#64013F" fill-rule="nonzero" mask="url(#ad)"/></g><g transform="translate(302)"><mask id="af" fill="#fff"><use xlink:href="#ae"/></mask><path d="M23.839 85.468c.295-.294-.332-.15-.626-.443-.295-.294-.146-.915-.44-.62a.755.755 0 0 0 1.067 1.064" fill="#FDF8FA" fill-rule="nonzero" opacity=".137" mask="url(#af)"/></g><g transform="translate(302)"><mask id="ah" fill="#fff"><use xlink:href="#ag"/></mask><path d="M24.107 85.808c.115-.19.181-.41.181-.644 0-.692-.578-1.269-1.271-1.269-.16 0-.313.031-.454.087a1.205 1.205 0 0 1 2.088.822c0 .42-.216.79-.544 1.004" fill="#4A012F" fill-rule="nonzero" mask="url(#ah)"/></g><g transform="translate(302)"><mask id="aj" fill="#fff"><use xlink:href="#ai"/></mask><path d="M20.097 81.509s5.57 8.818-.013 8.818c-5.375 0 .013-8.818.013-8.818" fill="#FBB330" fill-rule="nonzero" mask="url(#aj)"/></g><g transform="translate(302)"><mask id="al" fill="#fff"><use xlink:href="#ak"/></mask><path d="M18.681 87.622c0-.836.68-1.514 1.517-1.514.838 0 1.518.678 1.518 1.514s-.68 1.514-1.518 1.514a1.516 1.516 0 0 1-1.517-1.514" fill="#EE4350" fill-rule="nonzero" mask="url(#al)"/></g><g transform="translate(302)"><mask id="an" fill="#fff"><use xlink:href="#am"/></mask><path d="M19.702 88.46c-.37-.37.417-.19.788-.56.37-.369.183-1.15.554-.78.37.37.37.97 0 1.34a.95.95 0 0 1-1.342 0" fill="#FDF8FA" fill-rule="nonzero" opacity=".137" mask="url(#an)"/></g><g transform="translate(302)"><mask id="ap" fill="#fff"><use xlink:href="#ao"/></mask><path d="M19.364 88.886a1.565 1.565 0 0 1-.227-.81c0-.87.727-1.595 1.6-1.595.2 0 .392.038.57.108a1.516 1.516 0 0 0-2.626 1.033c0 .529.272.994.683 1.264" fill="#DE313E" fill-rule="nonzero" mask="url(#ap)"/></g><g transform="translate(302)"><mask id="ar" fill="#fff"><use xlink:href="#aq"/></mask><path d="M18.1 79.907a2 2 0 0 0 2.002 1.998 2 2 0 0 0 2.002-1.998 2 2 0 0 0-2.002-1.997 2 2 0 0 0-2.002 1.997" fill="#64013F" fill-rule="nonzero" mask="url(#ar)"/></g><g transform="translate(302)"><mask id="at" fill="#fff"><use xlink:href="#as"/></mask><path d="M19.447 78.803c-.49.488.55.249 1.04.736.488.488.242 1.518.73 1.03a1.247 1.247 0 0 0 0-1.766 1.254 1.254 0 0 0-1.77 0" fill="#FDF8FA" fill-rule="nonzero" opacity=".137" mask="url(#at)"/></g><g transform="translate(302)"><mask id="av" fill="#fff"><use xlink:href="#au"/></mask><path d="M19.001 78.239c-.19.315-.3.681-.3 1.07 0 1.147.96 2.105 2.11 2.105.265 0 .519-.052.754-.143-.366.39-.885.634-1.463.634a2 2 0 0 1-2.002-1.998c0-.697.358-1.31.901-1.668" fill="#4A012F" fill-rule="nonzero" mask="url(#av)"/></g><g transform="translate(302)"><mask id="ax" fill="#fff"><use xlink:href="#aw"/></mask><path d="M20.745 106.64s2.385 1.705 2.465 12.493" stroke="#EE4350" stroke-width="9.384" stroke-linecap="round" stroke-linejoin="round" mask="url(#ax)"/></g><g transform="translate(302)"><mask id="az" fill="#fff"><use xlink:href="#ay"/></mask><path d="M19.254 106.62s-2.385 1.705-2.464 12.493" stroke="#EE4350" stroke-width="9.384" stroke-linecap="round" stroke-linejoin="round" mask="url(#az)"/></g><g transform="translate(302)"><mask id="aB" fill="#fff"><use xlink:href="#aA"/></mask><path d="M20.666 106.848s1.252 4.333.934 11.829" stroke="#64013F" stroke-width="9.384" stroke-linecap="round" stroke-linejoin="round" mask="url(#aB)"/></g><g transform="translate(302)"><mask id="aD" fill="#fff"><use xlink:href="#aC"/></mask><path d="M19.475 106.848s-1.252 4.333-.934 11.829" stroke="#64013F" stroke-width="9.384" stroke-linecap="round" stroke-linejoin="round" mask="url(#aD)"/></g><g transform="translate(302)"><mask id="aF" fill="#fff"><use xlink:href="#aE"/></mask><path stroke="#EE4350" stroke-width="9.384" stroke-linecap="round" stroke-linejoin="round" mask="url(#aF)" d="M20.065 106.848v10.59"/></g><g transform="translate(302)"><mask id="aH" fill="#fff"><use xlink:href="#aG"/></mask><path d="M23.073 105.224a2.978 2.978 0 0 1-2.981 2.975 2.978 2.978 0 0 1-2.982-2.975 2.978 2.978 0 0 1 2.982-2.974 2.978 2.978 0 0 1 2.981 2.974" fill="#FBB330" fill-rule="nonzero" mask="url(#aH)"/></g><g transform="translate(302)"><mask id="aJ" fill="#fff"><use xlink:href="#aI"/></mask><path d="M21.067 103.58c.728.726-.82.37-1.548 1.097-.728.727-.36 2.26-1.088 1.533a1.858 1.858 0 0 1 0-2.63 1.868 1.868 0 0 1 2.636 0" fill="#FDF8FA" fill-rule="nonzero" opacity=".263" mask="url(#aJ)"/></g><g transform="translate(302)"><mask id="aL" fill="#fff"><use xlink:href="#aK"/></mask><path d="M21.73 102.74a3.08 3.08 0 0 1 .447 1.592c0 1.71-1.43 3.135-3.142 3.135-.394 0-.772-.076-1.122-.212.544.58 1.319.944 2.179.944a2.978 2.978 0 0 0 2.981-2.975 2.97 2.97 0 0 0-1.342-2.484" fill="#E9A11F" fill-rule="nonzero" mask="url(#aL)"/></g><g transform="translate(302)"><mask id="aN" fill="#fff"><use xlink:href="#aM"/></mask><path d="M7.162 46.957c-.602-3.133 2.497-8.694 9.789-8.522 1.58.038.082 5.011-3.613 5.943-3.754.945-5.261 7.344-6.176 2.579" fill="#FDF8FA" fill-rule="nonzero" opacity=".382" mask="url(#aN)"/></g><g transform="translate(302)"><mask id="aP" fill="#fff"><use xlink:href="#aO"/></mask><path fill="#EE4350" fill-rule="nonzero" mask="url(#aP)" d="M45.177 111.965h41.245V78.069H45.177z"/></g><g transform="translate(302)"><mask id="aR" fill="#fff"><use xlink:href="#aQ"/></mask><path fill="#FBB330" fill-rule="nonzero" mask="url(#aR)" d="M61.845 111.965h7.91V76.533h-7.91z"/></g><g transform="translate(302)"><mask id="aT" fill="#fff"><use xlink:href="#aS"/></mask><path d="M56.519 83.642c1.995.12 2.77 6.495-1.559 9.665-4.394 3.22-2.961 12.367-6.688 6.632-2.45-3.77-2.008-16.912 8.247-16.297Z" fill="#FDF8FA" fill-rule="nonzero" opacity=".152" mask="url(#aT)"/></g><g transform="translate(302)"><mask id="aV" fill="#fff"><use xlink:href="#aU"/></mask><path d="M79.48 78.069c-.03 2.565-.067 5.13-.105 7.695-.033 2.243.012 4.501-.28 6.73-.556 4.239-2.168 8.473-5.766 11.061-1.613 1.16-3.555 1.655-5.39 1.906-2.622.359-5.252.58-7.899.649-4.955.13-9.908-.107-14.863-.13v5.985h41.245V78.069H79.48Z" fill="#E33744" fill-rule="nonzero" mask="url(#aV)"/></g><g transform="translate(302)"><mask id="aX" fill="#fff"><use xlink:href="#aW"/></mask><path fill="#64013F" fill-rule="nonzero" opacity=".153" mask="url(#aX)" d="M45.177 82.071h41.245V78.07H45.177z"/></g><g transform="translate(302)"><mask id="aZ" fill="#fff"><use xlink:href="#aY"/></mask><path d="M67.042 67.823s15.75-20.507 21.993-9.528c6.176 10.861-21.067 12.033-21.067 12.033l-.926-2.505Z" fill="#FBB330" fill-rule="nonzero" mask="url(#aZ)"/></g><g transform="translate(302)"><mask id="bb" fill="#fff"><use xlink:href="#ba"/></mask><path d="M67.629 69.443s13.762-13.896 18.506-7.327c4.694 6.497-18.148 8.272-18.148 8.272l-.358-.945Z" fill="#F79A2A" fill-rule="nonzero" mask="url(#bb)"/></g><g transform="translate(302)"><mask id="bd" fill="#fff"><use xlink:href="#bc"/></mask><path d="M87.027 58.03c-6.267-5.888-15.111 6.145-15.111 6.145s8.622-6.221 13.032-4.212c1.985.903 2.736-1.316 2.079-1.934" fill="#FDF8FA" fill-rule="nonzero" opacity=".35" mask="url(#bd)"/></g><g transform="translate(302)"><mask id="bf" fill="#fff"><use xlink:href="#be"/></mask><path d="M64.861 67.823s-15.75-20.507-21.993-9.528c-6.176 10.861 21.067 12.033 21.067 12.033l.926-2.505Z" fill="#FBB330" fill-rule="nonzero" mask="url(#bf)"/></g><g transform="translate(302)"><mask id="bh" fill="#fff"><use xlink:href="#bg"/></mask><path d="M64.275 69.443s-13.762-13.896-18.507-7.327c-4.693 6.497 18.149 8.272 18.149 8.272l.358-.945Z" fill="#F79A2A" fill-rule="nonzero" mask="url(#bh)"/></g><g transform="translate(302)"><mask id="bj" fill="#fff"><use xlink:href="#bi"/></mask><path d="M44.877 58.03c6.267-5.888 15.11 6.145 15.11 6.145s-8.622-6.221-13.032-4.212c-1.984.903-2.736-1.316-2.078-1.934" fill="#FDF8FA" fill-rule="nonzero" opacity=".35" mask="url(#bj)"/></g><g transform="translate(302)"><mask id="bl" fill="#fff"><use xlink:href="#bk"/></mask><path d="M63.632 70.496c.897.475 3.179.686 4.222.098.508-.286 1.734-3.315.32-5.4-.54-.796-3.624-1.059-4.665.098-.76.844-.385 4.935.123 5.204" fill="#F4822A" fill-rule="nonzero" mask="url(#bl)"/></g><g transform="translate(302)"><mask id="bn" fill="#fff"><use xlink:href="#bm"/></mask><path fill="#64013F" fill-rule="nonzero" mask="url(#bn)" d="M43.266 78.129h45.067v-8.104H43.266z"/></g><g transform="translate(302)"><mask id="bp" fill="#fff"><use xlink:href="#bo"/></mask><path fill="#FBB330" fill-rule="nonzero" mask="url(#bp)" d="M61.845 78.129h7.91v-8.133h-7.91z"/></g><g transform="translate(302)"><mask id="br" fill="#fff"><use xlink:href="#bq"/></mask><path d="M46.038 95.304c-3.79 0-8.145-1.068-11.075-3.428-2.66 2.435-3.664 6.457-3.664 10.246 0 7.39 5.038 13.199 14.107 13.199 9.564 0 14.255-5.809 14.255-13.199 0-3.506-.75-7.174-3.07-9.56-2.799 2.005-7.074 2.742-10.553 2.742" fill="#FBB330" fill-rule="nonzero" mask="url(#br)"/></g><g transform="translate(302)"><mask id="bt" fill="#fff"><use xlink:href="#bs"/></mask><path d="M55.695 93.133c-.18 3.142-.834 6.238-1.854 9.213-.864 2.52-2.03 5.077-3.981 6.953-1.052 1.012-2.275 1.76-3.6 2.368-1.463.671-2.99 1.222-4.582 1.492-1.427.243-2.884.36-4.322.176 2.152 1.261 4.85 1.986 8.05 1.986 9.564 0 14.255-5.809 14.255-13.199 0-3.506-.75-7.175-3.07-9.56-.283.203-.584.393-.896.571Z" fill="#E79C15" fill-rule="nonzero" mask="url(#bt)"/></g><g transform="translate(302)"><mask id="bv" fill="#fff"><use xlink:href="#bu"/></mask><path d="M56.73 92.694c0 1.936-5.017 3.505-11.205 3.505-6.187 0-11.203-1.569-11.203-3.505s5.016-3.505 11.203-3.505c6.188 0 11.204 1.57 11.204 3.505" fill="#F27323" fill-rule="nonzero" mask="url(#bv)"/></g><g transform="translate(302)"><mask id="bx" fill="#fff"><use xlink:href="#bw"/></mask><path d="M54.571 92.67c0 1.276-4.128 2.31-9.22 2.31-5.091 0-9.22-1.034-9.22-2.31 0-1.277 4.129-2.311 9.22-2.311 5.092 0 9.22 1.034 9.22 2.31" fill="#641B08" fill-rule="nonzero" mask="url(#bx)"/></g><g transform="translate(302)"><mask id="bz" fill="#fff"><use xlink:href="#by"/></mask><path d="M59.044 101.31a.483.483 0 0 1-.113-.951l.018-.004a.482.482 0 1 1 .238.935l-.03.007a.481.481 0 0 1-.113.014Zm-1.2.28a.482.482 0 0 1-.105-.953l.023-.006a.484.484 0 1 1 .21.941l-.023.006a.484.484 0 0 1-.105.012Zm-25.673.117a.484.484 0 0 1-.105-.012l-.024-.006a.481.481 0 1 1 .211-.94l.024.004a.482.482 0 0 1-.106.954Zm24.482.133a.49.49 0 0 1-.48-.383.475.475 0 0 1 .366-.568l.03-.006a.483.483 0 1 1 .084.957Zm-23.274.118a.49.49 0 0 1-.49-.576.477.477 0 0 1 .557-.385l.032.007a.482.482 0 0 1-.099.954Zm22.068.111a.491.491 0 0 1-.485-.396.473.473 0 0 1 .38-.557l.024-.005a.482.482 0 1 1 .081.958Zm-20.855.112a.507.507 0 0 1-.077-.006l-.032-.005a.483.483 0 1 1 .17-.95l.016.003a.482.482 0 0 1-.077.958Zm19.634.095a.49.49 0 0 1-.484-.404.475.475 0 0 1 .39-.552l.031-.005a.483.483 0 1 1 .063.961Zm-18.416.101a.49.49 0 0 1-.494-.555.476.476 0 0 1 .54-.408l.03.004a.483.483 0 0 1-.076.96Zm17.18.082a.483.483 0 0 1-.063-.96l.017-.003a.483.483 0 1 1 .141.954l-.03.005a.492.492 0 0 1-.065.004Zm-15.958.087a.521.521 0 0 1-.057-.003l-.032-.004a.483.483 0 1 1 .127-.957l.017.003a.483.483 0 0 1-.055.961Zm14.758.066a.492.492 0 0 1-.49-.425.472.472 0 0 1 .41-.534l.025-.003a.482.482 0 1 1 .055.962Zm-13.534.077c-.019 0-.038 0-.057-.003a.49.49 0 0 1-.44-.53.478.478 0 0 1 .522-.431l.031.003a.483.483 0 0 1-.056.961Zm12.302.055a.49.49 0 0 1-.489-.433.476.476 0 0 1 .423-.528l.031-.003a.483.483 0 1 1 .035.964Zm-11.074.064-.043-.003-.024-.001a.483.483 0 1 1 .085-.962l.023.003a.483.483 0 0 1-.041.963Zm9.829.043a.482.482 0 0 1-.035-.963l.017-.001a.483.483 0 1 1 .084.96l-.03.003a.36.36 0 0 1-.036.001Zm-8.6.049-.035-.001a.49.49 0 0 1-.463-.51.475.475 0 0 1 .502-.455l.031.002a.483.483 0 0 1-.035.964Zm7.37.032a.483.483 0 0 1-.028-.964l.024-.001a.482.482 0 1 1 .056.963l-.024.001-.028.001Zm-6.138.035h-.046a.483.483 0 1 1 .042-.964h.024a.483.483 0 0 1-.02.964Zm4.906.022a.482.482 0 0 1-.014-.965h.018a.482.482 0 1 1 .041.963l-.031.002h-.014Zm-3.674.02h-.038a.483.483 0 1 1 .028-.965l.017.001a.483.483 0 0 1-.007.965Zm2.442.012a.484.484 0 0 1-.007-.965h.024a.483.483 0 1 1 .014.965h-.031Zm-1.209.006c-.27.001-.5-.213-.5-.482 0-.267.209-.483.476-.483h.03a.484.484 0 0 1-.006.965Z" fill="#90311F" fill-rule="nonzero" mask="url(#bz)"/></g><g transform="translate(302)"><mask id="bB" fill="#fff"><use xlink:href="#bA"/></mask><path d="m31.308 102.89.115 1.27c1.588.444 3.82.962 6.831 1.303 1.717.195 3.76.335 6.086.335 4.258 0 9.375-.474 15.234-1.94l.082-1.242c-13.884 3.549-24.251 1.45-28.348.274" fill="#F27323" fill-rule="nonzero" mask="url(#bB)"/></g><g transform="translate(302)"><mask id="bD" fill="#fff"><use xlink:href="#bC"/></mask><path d="M32.668 108.346s.933 1.646 1.03 1.672c1.254.325 2.72.576 4.419.794 1.716.22 3.76.378 6.086.378 3.813 0 8.355-.549 13.507-1.707.137-.03.86-1.628.86-1.628-11.964 3.25-21.206 1.772-25.902.491" fill="#90311F" fill-rule="nonzero" mask="url(#bD)"/></g><g transform="translate(302)"><mask id="bF" fill="#fff"><use xlink:href="#bE"/></mask><path d="M59.015 96.983c-12.913 3.576-22.723 1.784-27.145.387-.03-.01-.287 1.33-.287 1.33 1.571.474 3.772 1.01 6.534 1.363a47.9 47.9 0 0 0 6.086.378c4.21 0 9.343-.52 15.123-2.135 0 0-.252-1.34-.31-1.323" fill="#90311F" fill-rule="nonzero" mask="url(#bF)"/></g><g transform="translate(302)"><mask id="bH" fill="#fff"><use xlink:href="#bG"/></mask><path d="M58.937 106.233a.467.467 0 0 1-.108-.921l.022-.007a.468.468 0 0 1 .217.908l-.023.007a.462.462 0 0 1-.108.013Zm-1.122.263a.47.47 0 0 1-.459-.366.458.458 0 0 1 .367-.559.46.46 0 0 1 .544.362.467.467 0 0 1-.452.563Zm-25.545.054a.442.442 0 0 1-.122-.016l-.029-.008a.468.468 0 0 1-.313-.579.46.46 0 0 1 .57-.319l.014.004a.468.468 0 0 1-.12.918Zm24.399.195a.47.47 0 0 1-.46-.372.457.457 0 0 1 .373-.554.46.46 0 0 1 .54.37.467.467 0 0 1-.453.556Zm-23.265.11a.477.477 0 0 1-.458-.583.451.451 0 0 1 .543-.344h.003l.025.007a.468.468 0 0 1-.113.92Zm22.107.121a.467.467 0 0 1-.457-.377.46.46 0 0 1 .356-.546l.03-.006a.46.46 0 0 1 .533.379.466.466 0 0 1-.462.55Zm-20.964.143a.454.454 0 0 1-.095-.01l-.023-.005a.467.467 0 0 1-.355-.553.46.46 0 0 1 .545-.36l.022.004c.248.052.407.3.356.552a.462.462 0 0 1-.45.372Zm19.796.07a.462.462 0 0 1-.453-.393.466.466 0 0 1 .38-.536l.015-.003a.46.46 0 0 1 .533.377.466.466 0 0 1-.371.543l-.03.005a.479.479 0 0 1-.074.006Zm-18.645.159a.475.475 0 0 1-.08-.008l-.024-.004a.467.467 0 0 1-.372-.542.461.461 0 0 1 .534-.378l.022.004c.25.045.417.288.372.542a.463.463 0 0 1-.452.386Zm17.487.03a.463.463 0 0 1-.455-.4.467.467 0 0 1 .388-.53l.016-.003c.25-.04.488.132.528.386a.466.466 0 0 1-.38.536l-.029.005a.418.418 0 0 1-.068.005Zm-1.139.164a.471.471 0 0 1-.466-.405.457.457 0 0 1 .384-.523l.024-.002a.461.461 0 0 1 .515.401.466.466 0 0 1-.457.529Zm-15.19 0a.473.473 0 0 1-.47-.538.454.454 0 0 1 .513-.395l.03.005c.25.041.42.281.38.536a.462.462 0 0 1-.454.392Zm14.027.146a.471.471 0 0 1-.467-.414.455.455 0 0 1 .42-.518.462.462 0 0 1 .505.417.466.466 0 0 1-.458.515Zm-12.866.017a.476.476 0 0 1-.468-.527.452.452 0 0 1 .527-.404.466.466 0 0 1 .396.524.462.462 0 0 1-.455.407Zm11.678.11a.463.463 0 0 1-.458-.426.465.465 0 0 1 .418-.507l.016-.001a.462.462 0 0 1 .504.417.466.466 0 0 1-.41.512l-.03.003a.497.497 0 0 1-.04.001Zm-10.513.022c-.013 0-.027 0-.04-.002l-.03-.003a.465.465 0 0 1-.41-.513.46.46 0 0 1 .504-.416l.016.001c.253.023.44.25.417.507a.463.463 0 0 1-.457.426Zm9.367.077a.472.472 0 0 1-.47-.432.456.456 0 0 1 .414-.5l.023-.001a.464.464 0 0 1 .492.432.464.464 0 0 1-.459.5Zm-8.199.026c-.011 0-.023 0-.034-.002a.475.475 0 0 1-.437-.5.452.452 0 0 1 .481-.433l.023.002a.465.465 0 0 1 .425.5.463.463 0 0 1-.458.433Zm7.03.053a.473.473 0 0 1-.471-.443.455.455 0 0 1 .42-.49l.03-.001a.463.463 0 0 1 .48.446.464.464 0 0 1-.44.487h-.02Zm-5.86.021h-.02a.464.464 0 0 1-.462-.496.46.46 0 0 1 .486-.438h.016c.254.011.45.23.44.488a.463.463 0 0 1-.46.446Zm4.665.034a.464.464 0 0 1-.46-.453.465.465 0 0 1 .447-.481l.016-.001a.464.464 0 0 1 .48.447.465.465 0 0 1-.44.487H46.185Zm-3.493.014h-.037a.464.464 0 0 1-.446-.482.464.464 0 0 1 .473-.453h.023a.464.464 0 0 1 .446.481.463.463 0 0 1-.46.454Zm2.344.015a.473.473 0 0 1-.471-.46.454.454 0 0 1 .442-.474h.023a.46.46 0 0 1 .466.46c.004.259-.199.47-.453.474h-.007Zm-1.172.005a.478.478 0 0 1-.474-.467c0-.258.197-.467.45-.467h.03a.464.464 0 0 1 .454.474.464.464 0 0 1-.46.46Z" fill="#90311F" fill-rule="nonzero" mask="url(#bH)"/></g><g transform="translate(302)"><mask id="bJ" fill="#fff"><use xlink:href="#bI"/></mask><path d="M54.171 92.029a1.072 1.072 0 0 0-1.746-.778.87.87 0 0 0-1.345-.58.871.871 0 0 0-1.468-.028 1.073 1.073 0 0 0-1.934-.326.872.872 0 0 0-1.504-.053 1.073 1.073 0 0 0-1.891-.074 1.073 1.073 0 0 0-1.85.165.869.869 0 0 0-1.302.055 1.073 1.073 0 0 0-1.8.255.871.871 0 0 0-1.333.56 1.074 1.074 0 0 0-1.264.803s.03 2.051 8.744 2.051c8.424 0 8.693-2.05 8.693-2.05" fill="#EE4350" fill-rule="nonzero" mask="url(#bJ)"/></g><g transform="translate(302)"><mask id="bL" fill="#fff"><use xlink:href="#bK"/></mask><path d="M52.425 91.251a.87.87 0 0 0-1.345-.58.873.873 0 0 0-.533-.39c-.46.52-.954 1.003-1.543 1.39-1.118.733-2.537 1.173-3.836 1.459-1.311.289-2.673.341-4.011.365-.79.014-1.592 0-2.381-.096 1.274.375 3.342.68 6.702.68 8.424 0 8.693-2.05 8.693-2.05a1.072 1.072 0 0 0-1.746-.778Z" fill="#EE3745" fill-rule="nonzero" mask="url(#bL)"/></g><g transform="translate(302)"><mask id="bN" fill="#fff"><use xlink:href="#bM"/></mask><path d="M33.728 106.208c-1.482-2.347-.739-7.83 5.22-9.995 1.292-.47 1.659 4.031-1.039 5.954-2.738 1.952-1.926 7.61-4.181 4.041" fill="#FDF8FA" fill-rule="nonzero" opacity=".15" mask="url(#bN)"/></g><g transform="translate(302)"><mask id="bP" fill="#fff"><use xlink:href="#bO"/></mask><path d="M39.173 91.975c.118-.846 2.332-1.87 3.407-.797.32.318-.341 1.35-1.61.96-.997-.307-1.915.68-1.797-.163" fill="#FDF8FA" fill-rule="nonzero" opacity=".15" mask="url(#bP)"/></g><g transform="translate(302)"><mask id="bR" fill="#fff"><use xlink:href="#bQ"/></mask><path d="M60.862 109.331c0 4.94-2.864 6.448-6.398 6.448-3.532 0-6.397-1.957-6.397-6.448 0-3.56 2.865-6.446 6.397-6.446 3.534 0 6.398 2.886 6.398 6.446" fill="#F4822A" fill-rule="nonzero" mask="url(#bR)"/></g><g transform="translate(302)"><mask id="bT" fill="#fff"><use xlink:href="#bS"/></mask><path d="M59.772 105.73c-.106.981-.34 1.939-.847 2.865-.87 1.588-2.168 2.968-3.777 3.823-1.34.711-2.868 1.314-4.379 1.532-.32.046-.667.086-1.02.105 1.17 1.178 2.849 1.724 4.715 1.724 3.534 0 6.398-1.508 6.398-6.448a6.45 6.45 0 0 0-1.09-3.601" fill="#E8751C" fill-rule="nonzero" mask="url(#bT)"/></g><g transform="translate(302)"><mask id="bV" fill="#fff"><use xlink:href="#bU"/></mask><path d="M51.384 106.024c-.263-.568.606-1.255 2.309-.993 0 0-1.704 2.298-2.309.993" fill="#FBB330" fill-rule="nonzero" mask="url(#bV)"/></g><g transform="translate(302)"><mask id="bX" fill="#fff"><use xlink:href="#bW"/></mask><path d="M57.42 106.01c.264-.567-.605-1.255-2.307-.993 0 0 1.703 2.298 2.308.993" fill="#FBB330" fill-rule="nonzero" mask="url(#bX)"/></g><g transform="translate(302)"><mask id="bZ" fill="#fff"><use xlink:href="#bY"/></mask><path d="M55.536 107.443c.554-.188.46-1.216-.813-2.196 0 0-.46 2.629.813 2.196" fill="#FBB330" fill-rule="nonzero" mask="url(#bZ)"/></g><g transform="translate(302)"><mask id="cb" fill="#fff"><use xlink:href="#ca"/></mask><path d="M52.982 107.26c-.512-.281-.24-1.278 1.185-2.02 0 0-.006 2.668-1.185 2.02" fill="#FBB330" fill-rule="nonzero" mask="url(#cb)"/></g><g transform="translate(302)"><mask id="cd" fill="#fff"><use xlink:href="#cc"/></mask><path d="M56.89 104.06c-.12-.392-.846-.35-1.565.52 0 0 1.84.384 1.565-.52" fill="#FBB330" fill-rule="nonzero" mask="url(#cd)"/></g><g transform="translate(302)"><mask id="cf" fill="#fff"><use xlink:href="#ce"/></mask><path d="M55.883 103.356c-.148-.268-.672-.125-1.062.622 0 0 1.404-.005 1.062-.622" fill="#FBB330" fill-rule="nonzero" mask="url(#cf)"/></g><g transform="translate(302)"><mask id="ch" fill="#fff"><use xlink:href="#cg"/></mask><path d="M52.997 103.356c.148-.268.672-.125 1.062.622 0 0-1.403-.005-1.062-.622" fill="#FBB330" fill-rule="nonzero" mask="url(#ch)"/></g><g transform="translate(302)"><mask id="cj" fill="#fff"><use xlink:href="#ci"/></mask><path d="M51.98 104.103c.082-.402.809-.43 1.608.367 0 0-1.794.558-1.607-.367" fill="#FBB330" fill-rule="nonzero" mask="url(#cj)"/></g><g transform="translate(302)"><mask id="cl" fill="#fff"><use xlink:href="#ck"/></mask><path d="M54.902 104.516c0 .25-.215.452-.48.452-.267 0-.482-.202-.482-.452s.215-.452.481-.452.481.202.481.452" fill="#FBB330" fill-rule="nonzero" mask="url(#cl)"/></g><g transform="translate(302)"><mask id="cn" fill="#fff"><use xlink:href="#cm"/></mask><path d="M49.45 106.445c.481-.835 1.715-2.364 3.423-1.78 1.174.4-.9 1.379-1.607 3.03-.465 1.087-1.243 2.618-2.025 1.364-.531-.85-.097-2.085.208-2.614" fill="#FDF8FA" fill-rule="nonzero" opacity=".15" mask="url(#cn)"/></g></g></svg>