<svg width="50" height="50" viewBox="0 0 50 50" fill="none" xmlns="http://www.w3.org/2000/svg">
<path d="M33.5149 2.14844H16.4375C8.57949 2.14844 2.24609 8.48271 2.24609 16.3045V33.3044C2.24609 41.1267 8.57949 47.5586 16.4375 47.5586H33.5149C41.373 47.5586 47.8516 41.1267 47.8516 33.3044V16.3045C47.8516 8.48271 41.373 2.14844 33.5149 2.14844ZM43.5547 33.3044C43.5547 38.772 39.0076 43.2617 33.5149 43.2617H16.4375C10.9444 43.2617 6.44531 38.772 6.44531 33.3044V16.3045C6.44531 10.8372 10.9444 6.34766 16.4375 6.34766H33.5149C39.0076 6.34766 43.5547 10.8372 43.5547 16.3045V33.3044Z" fill="url(#paint0_linear_39_1164)"/>
<path d="M24.9762 13.4714C18.6889 13.4714 13.5913 18.5457 13.5913 24.8049C13.5913 31.0632 18.6889 36.1374 24.9762 36.1374C31.2636 36.1374 36.3609 31.0632 36.3609 24.8049C36.3609 18.5457 31.2636 13.4714 24.9762 13.4714ZM24.9762 31.8878C21.0539 31.8878 17.8609 28.709 17.8609 24.8049C17.8609 20.8971 21.0539 17.7215 24.9762 17.7215C28.8982 17.7215 32.0915 20.8972 32.0915 24.8049C32.0915 28.709 28.8982 31.8878 24.9762 31.8878Z" fill="url(#paint1_linear_39_1164)"/>
<path d="M37.2148 11.1112C36.3768 11.1112 35.6974 11.7874 35.6974 12.6213C35.6974 13.4553 36.3768 14.1317 37.2148 14.1317C38.052 14.1317 38.7316 13.4553 38.7316 12.6213C38.7316 11.7874 38.052 11.1112 37.2148 11.1112Z" fill="url(#paint2_linear_39_1164)"/>
<defs>
<linearGradient id="paint0_linear_39_1164" x1="6.43592" y1="43.4059" x2="43.5896" y2="6.25226" gradientUnits="userSpaceOnUse">
<stop stop-color="#FFC107"/>
<stop offset="0.2211" stop-color="#F98D1C"/>
<stop offset="0.5137" stop-color="#F1423B"/>
<stop offset="0.8329" stop-color="#B93088"/>
<stop offset="0.9944" stop-color="#9C27B0"/>
</linearGradient>
<linearGradient id="paint1_linear_39_1164" x1="16.9444" y1="32.8364" x2="33.0081" y2="16.7727" gradientUnits="userSpaceOnUse">
<stop stop-color="#FFC107"/>
<stop offset="0.2211" stop-color="#F98D1C"/>
<stop offset="0.5137" stop-color="#F1423B"/>
<stop offset="0.8329" stop-color="#B93088"/>
<stop offset="0.9944" stop-color="#9C27B0"/>
</linearGradient>
<linearGradient id="paint2_linear_39_1164" x1="36.1443" y1="13.6917" x2="38.2849" y2="11.5512" gradientUnits="userSpaceOnUse">
<stop stop-color="#FFC107"/>
<stop offset="0.2211" stop-color="#F98D1C"/>
<stop offset="0.5137" stop-color="#F1423B"/>
<stop offset="0.8329" stop-color="#B93088"/>
<stop offset="0.9944" stop-color="#9C27B0"/>
</linearGradient>
</defs>
</svg>
